<svg width="117" height="125" viewBox="0 0 117 125" fill="none" xmlns="http://www.w3.org/2000/svg">
<path d="M0 108.882C0 117.785 6.75446 125 15.0861 125H101.913C110.246 125 117 117.784 117 108.882V16.1182C117 7.21533 110.246 0 101.914 0H15.0866C6.75355 0 0 7.21631 0 16.1177V108.882V108.882Z" fill="#563D7C"/>
<path d="M48.5175 55.292V37.5903H63.1019C64.4912 37.5903 65.8303 37.7139 67.1201 37.9614C68.4098 38.2085 69.551 38.6499 70.5433 39.2861C71.535 39.9224 72.3289 40.8057 72.9244 41.936C73.5194 43.0669 73.8174 44.5156 73.8174 46.2817C73.8174 49.4619 72.9244 51.7588 71.1383 53.1719C69.3527 54.5855 67.0707 55.292 64.2924 55.292H48.5175ZM32.9406 24.6582V100.342H67.2691C70.4441 100.342 73.5364 99.918 76.5459 99.0698C79.5555 98.2217 82.2341 96.9146 84.5823 95.1479C86.9301 93.3813 88.7989 91.1021 90.1878 88.311C91.5772 85.5195 92.2714 82.2158 92.2714 78.3999C92.2714 73.665 91.1965 69.6196 89.0471 66.2632C86.8972 62.9062 83.6395 60.5566 79.2739 59.2139C82.4489 57.5889 84.847 55.5039 86.4676 52.96C88.0878 50.416 88.8981 47.2363 88.8981 43.4199C88.8981 39.8867 88.3524 36.9189 87.261 34.5161C86.1696 32.1138 84.6317 30.188 82.6473 28.7393C80.6633 27.2905 78.2822 26.248 75.5039 25.6123C72.726 24.9761 69.6502 24.6582 66.2769 24.6582H32.9406ZM48.5175 87.4097V66.6338H65.483C68.8564 66.6338 71.5684 67.4639 73.6191 69.125C75.6693 70.7856 76.6949 73.5591 76.6949 77.4458C76.6949 79.4248 76.3805 81.0498 75.752 82.3218C75.1236 83.5938 74.2804 84.6011 73.2219 85.3428C72.1639 86.085 70.94 86.6147 69.551 86.9331C68.1617 87.2505 66.7069 87.4097 65.1855 87.4097H48.5175Z" fill="white"/>
</svg>
