<svg width="194" height="212" viewBox="0 0 194 212" fill="none" xmlns="http://www.w3.org/2000/svg">
<g filter="url(#filter0_d)">
<path d="M105.083 70.6667C111.515 70.6667 117.683 73.4586 122.231 78.4283C126.778 83.398 129.333 90.1384 129.333 97.1667C129.333 99.5094 130.185 101.756 131.701 103.413C133.217 105.069 135.273 106 137.417 106C139.56 106 141.617 105.069 143.132 103.413C144.648 101.756 145.5 99.5094 145.5 97.1667C145.5 85.4529 141.242 74.219 133.662 65.9361C126.083 57.6533 115.802 53 105.083 53C102.939 53 100.883 53.9307 99.3676 55.5872C97.8516 57.2438 97 59.4906 97 61.8333C97 64.1761 97.8516 66.4229 99.3676 68.0794C100.883 69.736 102.939 70.6667 105.083 70.6667V70.6667Z" fill="white"/>
<path d="M127.764 73.3651C121.874 66.9289 113.737 63.17 105.095 63.1667C105.092 63.1657 105.088 63.1641 105.083 63.1616C105.058 63.1503 104.989 63.1134 104.901 63.0162C104.709 62.8068 104.5 62.3911 104.5 61.8333C104.5 61.2755 104.709 60.8599 104.901 60.6504C104.989 60.5533 105.058 60.5164 105.083 60.505C105.088 60.5026 105.092 60.501 105.095 60.5C113.595 60.5034 121.897 64.189 128.129 70.9993C134.385 77.835 138 87.2379 138 97.1667C138 97.7245 137.791 98.1402 137.599 98.3496C137.511 98.4467 137.442 98.4836 137.417 98.495C137.417 98.4951 137.417 98.4951 137.417 98.4952C137.416 98.4951 137.416 98.4951 137.416 98.495C137.391 98.4836 137.323 98.4467 137.234 98.3496C137.042 98.1402 136.833 97.7245 136.833 97.1667C136.833 88.3535 133.636 79.782 127.764 73.3651Z" stroke="#EC1B1B" stroke-opacity="0.75" stroke-width="15"/>
<path d="M105.083 35.3334C120.09 35.3334 134.482 41.8479 145.094 53.4439C155.705 65.0399 161.667 80.7675 161.667 97.1667C161.667 99.5094 162.518 101.756 164.034 103.413C165.55 105.069 167.606 106 169.75 106C171.894 106 173.95 105.069 175.466 103.413C176.982 101.756 177.833 99.5094 177.833 97.1667C177.833 76.082 170.169 55.8608 156.525 40.9517C142.882 26.0426 124.378 17.6667 105.083 17.6667C102.939 17.6667 100.883 18.5973 99.3675 20.2539C97.8516 21.9105 97 24.1573 97 26.5C97 28.8428 97.8516 31.0896 99.3675 32.7461C100.883 34.4027 102.939 35.3334 105.083 35.3334V35.3334ZM175.812 140.538C175.368 139.12 174.6 137.849 173.582 136.845C172.564 135.84 171.329 135.135 169.992 134.797L121.492 122.695C120.176 122.369 118.806 122.408 117.507 122.809C116.208 123.21 115.021 123.961 114.056 124.992C112.924 126.14 112.843 126.228 107.589 137.182C90.155 128.403 76.1853 113.074 68.2233 93.9867C78.4891 88.3334 78.57 88.3334 79.6208 87.0084C80.5642 85.9533 81.2508 84.6568 81.6179 83.2373C81.985 81.8177 82.021 80.3203 81.7225 78.8817L70.6483 26.5C70.3383 25.0398 69.6933 23.6899 68.7741 22.5772C67.8549 21.4646 66.6918 20.6259 65.3941 20.14C63.5064 19.4032 61.5571 18.8707 59.5741 18.55C57.5311 18.0323 55.4462 17.7365 53.35 17.6667C43.4883 17.6667 34.0306 21.9477 27.0574 29.5679C20.0841 37.1881 16.1666 47.5234 16.1666 58.3C16.2094 94.364 29.3383 128.937 52.6742 154.438C76.0101 179.94 107.648 194.287 140.65 194.333C145.533 194.333 150.368 193.282 154.879 191.24C159.391 189.198 163.49 186.205 166.943 182.432C170.395 178.659 173.134 174.18 175.003 169.25C176.872 164.32 177.833 159.036 177.833 153.7C177.836 151.452 177.674 149.207 177.348 146.987C177.009 144.793 176.495 142.635 175.812 140.538V140.538Z" fill="white"/>
<path d="M168.656 142.782L175.812 140.538L168.681 142.859C169.234 144.561 169.653 146.316 169.932 148.105C170.201 149.951 170.335 151.82 170.333 153.692V153.7C170.333 158.139 169.533 162.521 167.99 166.591C166.447 170.661 164.201 174.318 161.41 177.369C158.619 180.418 155.343 182.798 151.787 184.408C148.236 186.015 144.457 186.832 140.659 186.833C109.869 186.789 80.2005 173.409 58.2072 149.375C36.1944 125.32 23.7084 92.5759 23.6666 58.2957C23.6677 49.3056 26.9423 40.8032 32.5904 34.6311C38.188 28.5142 45.6207 25.2033 53.2237 25.167C54.7385 25.226 56.2479 25.4442 57.732 25.8203L58.0515 25.9012L58.3769 25.9538C59.832 26.1891 61.2688 26.5809 62.6672 27.1267L62.7156 27.1456L62.7643 27.1639C62.7805 27.1699 62.8727 27.2095 62.992 27.354C63.1139 27.5015 63.2431 27.7365 63.3111 28.0544C63.3114 28.0555 63.3116 28.0566 63.3118 28.0577L74.3789 80.4054C74.3795 80.4084 74.3801 80.4114 74.3807 80.4144C74.4442 80.7276 74.4348 81.0577 74.3568 81.3594C74.2782 81.6633 74.1463 81.879 74.0299 82.0092L73.8822 82.1744L73.8169 82.2567C73.7359 82.3088 73.6261 82.3779 73.4815 82.4658C72.3559 83.1502 70.3356 84.2624 66.1366 86.5739C65.6555 86.8388 65.1457 87.1195 64.6054 87.417L58.7106 90.6632L61.3014 96.8741C69.9086 117.508 85.0813 134.245 104.216 143.88L111.045 147.319L114.351 140.425C117.018 134.866 118.263 132.294 118.986 130.939C119.158 130.616 119.267 130.428 119.326 130.33C119.346 130.309 119.37 130.285 119.398 130.256L119.465 130.188L119.53 130.118C119.617 130.025 119.683 129.991 119.708 129.98L168.149 142.067C168.149 142.067 168.15 142.067 168.151 142.067C168.152 142.068 168.155 142.068 168.159 142.07C168.166 142.073 168.176 142.078 168.19 142.085C168.217 142.101 168.261 142.131 168.315 142.184C168.425 142.292 168.564 142.487 168.656 142.782ZM150.627 48.3807C138.671 35.3153 122.305 27.8334 105.083 27.8334C105.104 27.8334 105.106 27.839 105.083 27.8283C105.058 27.817 104.989 27.7801 104.9 27.6829C104.709 27.4735 104.5 27.0578 104.5 26.5C104.5 25.9422 104.709 25.5265 104.9 25.3171C104.989 25.22 105.058 25.1831 105.083 25.1717C105.088 25.1693 105.092 25.1677 105.095 25.1667C122.171 25.17 138.696 32.5782 150.992 46.0149C163.311 59.4769 170.333 77.8669 170.333 97.1667C170.333 97.7245 170.124 98.1402 169.933 98.3496C169.844 98.4468 169.776 98.4837 169.751 98.495C169.75 98.4951 169.75 98.4952 169.75 98.4953C169.75 98.4952 169.75 98.4951 169.749 98.495C169.724 98.4837 169.656 98.4468 169.567 98.3496C169.376 98.1402 169.167 97.7245 169.167 97.1667C169.167 78.9825 162.562 61.4239 150.627 48.3807Z" stroke="#EC1B1B" stroke-opacity="0.75" stroke-width="15"/>
</g>
<defs>
<filter id="filter0_d" x="-4" y="0" width="202" height="220" filterUnits="userSpaceOnUse" color-interpolation-filters="sRGB">
<feFlood flood-opacity="0" result="BackgroundImageFix"/>
<feColorMatrix in="SourceAlpha" type="matrix" values="0 0 0 0 0 0 0 0 0 0 0 0 0 0 0 0 0 0 127 0"/>
<feOffset dy="4"/>
<feGaussianBlur stdDeviation="2"/>
<feColorMatrix type="matrix" values="0 0 0 0 0 0 0 0 0 0 0 0 0 0 0 0 0 0 0.25 0"/>
<feBlend mode="normal" in2="BackgroundImageFix" result="effect1_dropShadow"/>
<feBlend mode="normal" in="SourceGraphic" in2="effect1_dropShadow" result="shape"/>
</filter>
</defs>
</svg>
