<svg width="112" height="146" viewBox="0 0 112 146" fill="none" xmlns="http://www.w3.org/2000/svg">
<path d="M55.9318 145.631L10.3521 133.934L0.194702 28.6201H111.805L101.637 133.918L55.9318 145.631Z" fill="#264DE4"/>
<path d="M92.9324 127.213L101.621 37.2308H56V136.678L92.9324 127.213Z" fill="#2965F1"/>
<path d="M23.4802 76.2905L24.7323 89.2068H56V76.2905H23.4802Z" fill="#EBEBEB"/>
<path d="M20.9637 50.1476L22.2338 63.0639H56.0001V50.1476H20.9637Z" fill="#EBEBEB"/>
<path d="M55.9999 109.836L55.9387 109.851L40.3777 105.967L39.3828 95.6652H25.3566L27.3139 115.946L55.9356 123.29L55.9999 123.274V109.836Z" fill="#EBEBEB"/>
<path d="M26.4618 0H43.3843V6.54209H33.5388V13.0842H43.3852V19.6259H26.4618V0Z" fill="#CDC4C4"/>
<path d="M46.7692 0H63.6922V5.68874H53.8462V6.82641H63.6922V19.9106H46.7697V13.9367H56.6156V12.7991H46.7688V0H46.7692Z" fill="#CDC4C4"/>
<path d="M67.077 0H84V5.68874H74.154V6.82641H84V19.9106H67.077V13.9367H76.923V12.7991H67.0775V0H67.077Z" fill="#CDC4C4"/>
<path d="M88.4305 76.2905L90.9527 50.1476H55.9519V63.0639H75.6402L74.3689 76.2905H55.9519V89.2068H73.1574L71.5352 105.958L55.9514 109.847V123.284L84.5959 115.946L84.8059 113.764L88.0897 79.7589L88.4305 76.2905Z" fill="white"/>
</svg>
