<svg width="171" height="97" viewBox="0 0 171 97" fill="none" xmlns="http://www.w3.org/2000/svg">
<path d="M1.11284 75.2752V38.1802H24.8738V36.0104H1.11284V2.16915H26.3761V0H0V77.4444H26.5985V75.2752H1.11317H1.11284ZM48.0226 21.6928L38.1734 46.9656L28.5463 21.6935H27.0995L37.5054 48.5931L26.0975 77.4437H27.4331L38.1727 50.2187L48.9681 77.4437H50.3592L38.8962 48.5918L49.3575 21.6922H48.0223L48.0226 21.6928ZM53.6983 96.5345V61.8261H53.8096C54.4775 66.8877 55.7944 70.9552 57.7606 74.0286C59.7268 77.1013 62.2306 78.6383 65.2726 78.6383C67.2387 78.6383 68.9825 77.861 70.5034 76.3064C72.0244 74.7518 73.2949 72.6367 74.3152 69.9611C75.3352 67.2854 76.1144 64.1762 76.6524 60.6328C77.1901 57.09 77.4593 53.3656 77.4593 49.4615C77.4593 45.2671 77.1808 41.3982 76.6244 37.8554C76.0679 34.312 75.261 31.2386 74.204 28.6358C73.1466 26.0325 71.8668 24.0072 70.3642 22.5619C68.8619 21.1154 67.1646 20.3921 65.2726 20.3921C63.8258 20.3921 62.4811 20.8081 61.2384 21.6395C59.9956 22.4714 58.8921 23.6459 57.9276 25.1647C56.9574 26.6951 56.1129 28.5057 55.4234 30.5335C54.7187 32.5946 54.1806 34.8542 53.8096 37.3131H53.6983V21.6928H52.5855V96.5345H53.6983ZM65.2726 76.5766C61.7858 76.5766 58.9846 74.2447 56.8702 69.5809C54.7557 64.9171 53.6983 58.2098 53.6983 49.4602C53.6983 45.8445 53.9582 42.4098 54.4775 39.1561C54.9969 35.9024 55.748 33.0457 56.7309 30.5875C57.7142 28.1287 58.9292 26.1763 60.3757 24.7304C61.8225 23.2839 63.455 22.5606 65.2726 22.5606C67.1275 22.5606 68.7507 23.2839 70.1417 24.7304C71.5328 26.1763 72.683 28.1469 73.5918 30.6416C74.5006 33.1362 75.1869 35.9929 75.6508 39.2101C76.1144 42.4281 76.3462 45.8445 76.3462 49.4602C76.3462 52.7146 76.1331 55.9508 75.7062 59.168C75.2797 62.386 74.6211 65.2784 73.7307 67.846C72.8407 70.4122 71.7001 72.5091 70.3087 74.1366C68.9173 75.7635 67.2387 76.5766 65.2726 76.5766ZM83.5803 77.4444V45.881C83.5803 42.844 83.8027 39.8787 84.2482 36.9869C84.6931 34.0945 85.3794 31.5452 86.3069 29.3402C87.2344 27.1346 88.412 25.399 89.8405 24.1335C91.2686 22.8679 92.9659 22.3438 94.9321 22.5606V20.3915C93.2254 20.3199 91.7325 20.6805 90.4527 21.4761C89.1725 22.2716 88.069 23.3562 87.1415 24.7304C86.2141 26.1041 85.4723 27.7127 84.9159 29.557C84.3599 31.3984 83.9472 33.3905 83.6915 35.4681H83.5803V21.6928H82.4674V77.4451H83.5803V77.4444ZM96.3231 50.0025H120.251C120.325 46.17 120.131 42.4827 119.667 38.9393C119.203 35.3959 118.461 32.2502 117.441 29.503C116.421 26.7551 115.104 24.5495 113.49 22.8861C111.876 21.2228 109.956 20.3915 107.731 20.3915C106.135 20.3915 104.577 21.0425 103.056 22.3445C101.535 23.6459 100.2 25.5435 99.0498 28.0382C97.8998 30.5329 96.9724 33.588 96.2677 37.2044C95.5629 40.8194 95.2103 44.9409 95.2103 49.5689C95.2103 53.6905 95.4514 57.5412 95.9337 61.1204C96.4159 64.6996 97.1577 67.8095 98.1593 70.4487C99.1613 73.0879 100.45 75.1307 102.027 76.5766C103.603 78.0231 105.505 78.71 107.731 78.6377C110.995 78.6377 113.74 76.8474 115.966 73.2688C118.192 69.689 119.509 64.6456 119.917 58.1375H118.804C118.322 64.2843 117.088 68.8941 115.104 71.9668C113.119 75.0402 110.624 76.5766 107.619 76.5766C105.579 76.5766 103.854 75.8898 102.444 74.5162C101.035 73.1425 99.8844 71.2618 98.994 68.8759C98.1039 66.4893 97.4453 63.6873 97.0188 60.4694C96.592 57.2521 96.3602 53.7627 96.3231 50.0025ZM119.138 47.8334H96.3234C96.4343 43.9286 96.8054 40.4217 97.4359 37.3124C98.0668 34.2026 98.8921 31.5452 99.9124 29.3402C100.932 27.1346 102.12 25.4537 103.474 24.2962C104.828 23.1394 106.284 22.5606 107.842 22.5606C109.697 22.5606 111.329 23.2299 112.739 24.5677C114.148 25.9055 115.326 27.7316 116.272 30.0453C117.218 32.3589 117.932 35.0528 118.414 38.1256C118.897 41.199 119.138 44.4351 119.138 47.8334ZM143.344 38.1802H144.457C144.457 31.9612 143.529 27.4419 141.675 24.6217C139.82 21.8016 137.297 20.3915 134.107 20.3915C132.326 20.3915 130.824 20.8257 129.599 21.6935C128.375 22.5606 127.374 23.6817 126.594 25.0553C125.816 26.4289 125.259 27.9477 124.925 29.611C124.591 31.2744 124.424 32.8654 124.424 34.3836C124.424 37.4205 124.702 39.8429 125.259 41.6508C125.816 43.4586 126.687 44.8687 127.874 45.881C128.691 46.6036 129.618 47.2546 130.657 47.834C131.695 48.4121 132.901 49.0267 134.274 49.677C135.498 50.2564 136.703 50.8345 137.891 51.4126C139.078 51.9913 140.126 52.7686 141.035 53.7445C141.944 54.721 142.685 55.9683 143.261 57.4871C143.835 59.0053 144.123 60.9941 144.123 63.4523C144.123 65.8389 143.836 67.8635 143.261 69.5262C142.69 71.1809 141.94 72.5699 141.063 73.5943C140.172 74.6425 139.18 75.4015 138.086 75.8716C136.991 76.3416 135.925 76.5766 134.886 76.5766C131.51 76.5766 128.922 75.1125 127.123 72.1843C125.324 69.2554 124.425 64.6456 124.425 58.3543H123.311C123.311 65.3689 124.285 70.5027 126.233 73.7571C128.181 77.0108 131.065 78.6377 134.886 78.6377C136.11 78.6377 137.343 78.3662 138.586 77.8239C139.829 77.2816 140.942 76.3963 141.925 75.1665C142.9 73.9542 143.718 72.3216 144.318 70.3947C144.93 68.4416 145.236 66.0557 145.236 63.2355C145.236 60.5599 144.967 58.3907 144.429 56.7274C143.891 55.0647 143.186 53.6905 142.314 52.6059C141.443 51.5213 140.46 50.6718 139.365 50.0572C138.265 49.439 137.161 48.8422 136.054 48.2669C134.692 47.5704 133.329 46.8836 131.964 46.2065C130.796 45.6278 129.711 44.9409 128.709 44.1454C127.745 43.3499 126.975 42.2113 126.4 40.7289C125.825 39.2466 125.537 37.1315 125.537 34.3836C125.537 33.8777 125.612 32.9735 125.76 31.6721C125.908 30.3701 126.261 29.0505 126.817 27.7127C127.374 26.3755 128.227 25.1822 129.377 24.1335C130.527 23.0853 132.104 22.5606 134.107 22.5606C135.479 22.5606 136.731 22.8503 137.863 23.4284C138.994 24.0072 139.968 24.929 140.784 26.1946C141.6 27.4601 142.231 29.0687 142.676 31.0211C143.121 32.9741 143.344 35.3601 143.344 38.1802ZM169.108 38.1802H170.221C170.221 31.9612 169.294 27.4419 167.439 24.6217C165.584 21.8016 163.061 20.3915 159.871 20.3915C158.09 20.3915 156.588 20.8257 155.364 21.6935C154.139 22.5606 153.138 23.6817 152.359 25.0553C151.579 26.4289 151.023 27.9477 150.689 29.611C150.355 31.2744 150.188 32.8654 150.188 34.3836C150.188 37.4205 150.467 39.8429 151.023 41.6508C151.579 43.4586 152.452 44.8687 153.638 45.881C154.455 46.6036 155.382 47.2546 156.421 47.834C157.459 48.4121 158.665 49.0267 160.038 49.677C161.262 50.2564 162.468 50.8345 163.655 51.4126C164.842 51.9913 165.89 52.7686 166.799 53.7445C167.708 54.721 168.45 55.9683 169.024 57.4871C169.6 59.0053 169.887 60.9941 169.887 63.4523C169.887 65.8389 169.6 67.8635 169.024 69.5262C168.454 71.1808 167.704 72.5698 166.827 73.5943C165.936 74.6425 164.944 75.4015 163.849 75.8716C162.755 76.3416 161.689 76.5766 160.65 76.5766C157.274 76.5766 154.687 75.1125 152.887 72.1843C151.088 69.2554 150.188 64.6456 150.188 58.3543H149.076C149.076 65.3689 150.049 70.5027 151.997 73.7571C153.944 77.0108 156.829 78.6377 160.65 78.6377C161.874 78.6377 163.108 78.3662 164.35 77.8239C165.593 77.2816 166.706 76.3963 167.689 75.1665C168.664 73.9542 169.482 72.3216 170.082 70.3947C170.694 68.4416 171 66.0557 171 63.2355C171 60.5599 170.731 58.3907 170.193 56.7274C169.655 55.0647 168.951 53.6905 168.079 52.6059C167.207 51.5213 166.224 50.6718 165.13 50.0572C164.029 49.439 162.925 48.8422 161.818 48.2669C160.456 47.5704 159.093 46.8836 157.728 46.2065C156.56 45.6278 155.475 44.9409 154.473 44.1454C153.509 43.3499 152.739 42.2113 152.164 40.7289C151.589 39.2466 151.301 37.1315 151.301 34.3836C151.301 33.8777 151.375 32.9735 151.524 31.6721C151.672 30.3701 152.025 29.0505 152.581 27.7127C153.138 26.3755 153.991 25.1822 155.141 24.1335C156.291 23.0853 157.867 22.5606 159.871 22.5606C161.244 22.5606 162.495 22.8503 163.627 23.4284C164.758 24.0072 165.732 24.929 166.548 26.1946C167.365 27.4601 167.995 29.0687 168.44 31.0211C168.886 32.9741 169.108 35.3601 169.108 38.1802H169.108Z" fill="#E3CFCF"/>
</svg>
