<svg width="112" height="146" viewBox="0 0 112 146" fill="none" xmlns="http://www.w3.org/2000/svg">
<g clip-path="url(#clip0)">
<path d="M111.805 28.6201L101.637 133.918L55.9316 145.631L10.352 133.934L0.19458 28.6201H111.805Z" fill="#E44D26"/>
<path d="M56 136.678L92.9324 127.213L101.621 37.2308H56V136.678Z" fill="#F16529"/>
<path d="M36.2337 63.0639H55.9999V50.1476H20.9636L21.2979 53.6128L24.7322 89.2068H55.9999V76.2905H37.5107L36.2337 63.0639Z" fill="#EBEBEB"/>
<path d="M39.3829 95.6652H25.3567L27.3141 115.946L55.9358 123.29L56.0001 123.274V109.836L55.9388 109.851L40.3778 105.966L39.3829 95.6652Z" fill="#EBEBEB"/>
<path d="M10.5789 0H17.6795V6.48507H24.175V0H31.2761V19.6384H24.1755V13.0623H17.6799V19.6384H10.5793V0H10.5789Z" fill="#CDC4C4"/>
<path d="M40.6132 6.51257H34.363V0H53.9692V6.51257H47.7151V19.6384H40.6145V6.51257H40.614H40.6132Z" fill="#CDC4C4"/>
<path d="M57.0808 0H64.4846L69.039 6.90042L73.589 0H80.9959V19.6384H73.9241V9.90454L69.039 16.8871H68.9165L64.0283 9.90454V19.6384H57.0808V0Z" fill="#CDC4C4"/>
<path d="M84.5295 0H91.6323V13.1473H101.618V19.6384H84.5291V0H84.5295Z" fill="#CDC4C4"/>
<path d="M55.9519 89.2068H73.1574L71.5352 105.958L55.9514 109.847V123.284L84.5959 115.946L84.8059 113.764L88.0897 79.7589L88.4305 76.2905H55.9519V89.2068Z" fill="white"/>
<path d="M55.9519 63.0324V63.0639H89.702L89.982 60.1609L90.619 53.6128L90.9528 50.1476H55.9519V63.0328V63.0324Z" fill="white"/>
</g>
<defs>
<clipPath id="clip0">
<rect width="112" height="146" fill="white"/>
</clipPath>
</defs>
</svg>
