<svg width="35" height="35" viewBox="0 0 64 64" fill="none" xmlns="http://www.w3.org/2000/svg">
<path d="M31.9999 23.6687C27.4124 23.6687 23.6687 27.4125 23.6687 32C23.6687 36.5875 27.4124 40.3312 31.9999 40.3312C36.5874 40.3312 40.3312 36.5875 40.3312 32C40.3312 27.4125 36.5874 23.6687 31.9999 23.6687ZM56.9874 32C56.9874 28.55 57.0187 25.1312 56.8249 21.6875C56.6312 17.6875 55.7187 14.1375 52.7937 11.2125C49.8624 8.28123 46.3187 7.37499 42.3187 7.18124C38.8687 6.98749 35.4499 7.01874 32.0062 7.01874C28.5562 7.01874 25.1374 6.98749 21.6937 7.18124C17.6937 7.37499 14.1437 8.28748 11.2187 11.2125C8.28743 14.1437 7.38118 17.6875 7.18743 21.6875C6.99368 25.1375 7.02493 28.5562 7.02493 32C7.02493 35.4437 6.99368 38.8687 7.18743 42.3125C7.38118 46.3125 8.29368 49.8625 11.2187 52.7875C14.1499 55.7187 17.6937 56.625 21.6937 56.8187C25.1437 57.0125 28.5624 56.9812 32.0062 56.9812C35.4562 56.9812 38.8749 57.0125 42.3187 56.8187C46.3187 56.625 49.8687 55.7125 52.7937 52.7875C55.7249 49.8562 56.6312 46.3125 56.8249 42.3125C57.0249 38.8687 56.9874 35.45 56.9874 32ZM31.9999 44.8187C24.9062 44.8187 19.1812 39.0937 19.1812 32C19.1812 24.9062 24.9062 19.1812 31.9999 19.1812C39.0937 19.1812 44.8187 24.9062 44.8187 32C44.8187 39.0937 39.0937 44.8187 31.9999 44.8187ZM45.3437 21.65C43.6874 21.65 42.3499 20.3125 42.3499 18.6562C42.3499 17 43.6874 15.6625 45.3437 15.6625C46.9999 15.6625 48.3374 17 48.3374 18.6562C48.3379 19.0495 48.2608 19.439 48.1106 19.8025C47.9603 20.1659 47.7398 20.4961 47.4617 20.7742C47.1836 21.0523 46.8534 21.2728 46.4899 21.4231C46.1265 21.5734 45.737 21.6505 45.3437 21.65Z" fill="#9F9D9D" fill-opacity="0.61"/>
</svg>
