<svg width="256" height="256" viewBox="0 0 256 256" fill="none" xmlns="http://www.w3.org/2000/svg">
<g clip-path="url(#clip0)">
<path d="M128.152 0.000993691C148.929 0.000993691 168.492 4.85499 186.844 14.258L189.27 15.472L187.147 17.14C181.991 21.235 177.896 26.543 175.317 32.609L174.559 34.277L173.043 33.519C158.938 26.846 143.924 23.358 128.303 23.358C70.521 23.358 23.659 70.372 23.659 128.002C23.659 185.632 70.369 232.647 128.152 232.647C185.934 232.647 232.796 185.633 232.796 128.002C232.796 114.202 230.218 100.704 224.758 87.964L224 86.296L225.668 85.538C231.886 83.263 237.346 79.472 241.744 74.618L243.412 72.495L244.474 74.922C252.209 91.756 256 109.652 256 127.699C256 198.22 198.521 255.699 128 255.699C57.479 255.699 0 198.22 0 127.7C0 57.18 57.479 -0.300006 128.152 0.000993691ZM128.152 69.765C160.152 69.765 186.389 95.851 186.54 128.154C186.54 160.457 160.455 186.543 128.152 186.543C95.848 186.543 69.763 160.457 69.763 128.154C69.763 95.851 96 69.765 128.152 69.765V69.765ZM211.716 21.538C226.457 21.538 238.408 33.488 238.408 48.23C238.408 62.971 226.458 74.922 211.716 74.922C196.974 74.922 185.024 62.972 185.024 48.23C185.024 33.488 196.974 21.538 211.716 21.538V21.538Z" fill="#3880FF"/>
</g>
<defs>
<clipPath id="clip0">
<rect width="256" height="256" fill="white"/>
</clipPath>
</defs>
</svg>
