<svg width="120" height="133" viewBox="0 0 120 133" fill="none" xmlns="http://www.w3.org/2000/svg">
<path d="M7.5 8.3125H112.5V124.688H7.5V8.3125Z" fill="#F5DE19"/>
<path d="M78.0339 99.2305C78.9285 101.245 80.3185 102.938 82.0435 104.114C83.7686 105.291 85.7585 105.903 87.7839 105.881C91.8714 105.881 94.4851 103.615 94.4851 100.477C94.4851 96.7368 91.8001 95.3985 87.3001 93.2164L84.8326 92.0444C77.7076 88.682 72.9826 84.4717 72.9826 75.569C72.9826 67.3687 78.6076 61.1219 87.4314 61.1219C90.2878 60.8933 93.1417 61.6018 95.6371 63.1591C98.1326 64.7165 100.159 67.0536 101.464 69.8791L93.7501 75.3446C93.2477 73.9436 92.3729 72.745 91.2417 71.9077C90.1106 71.0704 88.7765 70.634 87.4164 70.6563C86.823 70.5905 86.2237 70.6624 85.6568 70.8674C85.0898 71.0724 84.5676 71.4061 84.1235 71.8472C83.6793 72.2882 83.3229 72.827 83.077 73.4291C82.8311 74.0313 82.701 74.6836 82.6951 75.3446C82.6951 78.6238 84.5289 79.9538 88.7626 81.9946L91.2301 83.1666C99.6151 87.1525 104.355 91.2131 104.355 100.344C104.355 110.191 97.3764 115.585 88.0051 115.585C84.3538 115.843 80.7131 114.924 77.5225 112.94C74.3318 110.955 71.7275 107.99 70.0239 104.401L78.0339 99.2305ZM43.1776 100.178C44.7264 103.225 46.1364 105.802 49.5264 105.802C52.7664 105.802 54.8139 104.397 54.8139 98.9313V61.7453H64.6801V99.0767C64.6801 110.398 58.6801 115.552 49.9464 115.552C46.8592 115.739 43.7932 114.886 41.1515 113.106C38.5097 111.326 36.4158 108.701 35.1451 105.577L43.1776 100.178Z" fill="black"/>
</svg>
