<svg width="35" height="35" viewBox="0 0 54 54" fill="none" xmlns="http://www.w3.org/2000/svg">
<path d="M42.75 6.75C43.9435 6.75 45.0881 7.22411 45.932 8.06802C46.7759 8.91193 47.25 10.0565 47.25 11.25V42.75C47.25 43.9435 46.7759 45.0881 45.932 45.932C45.0881 46.7759 43.9435 47.25 42.75 47.25H11.25C10.0565 47.25 8.91193 46.7759 8.06802 45.932C7.22411 45.0881 6.75 43.9435 6.75 42.75V11.25C6.75 10.0565 7.22411 8.91193 8.06802 8.06802C8.91193 7.22411 10.0565 6.75 11.25 6.75H42.75ZM41.625 41.625V29.7C41.625 27.7546 40.8522 25.889 39.4766 24.5134C38.101 23.1378 36.2354 22.365 34.29 22.365C32.3775 22.365 30.15 23.535 29.07 25.29V22.7925H22.7925V41.625H29.07V30.5325C29.07 28.8 30.465 27.3825 32.1975 27.3825C33.0329 27.3825 33.8341 27.7144 34.4249 28.3051C35.0156 28.8959 35.3475 29.6971 35.3475 30.5325V41.625H41.625ZM15.48 19.26C16.4825 19.26 17.444 18.8618 18.1529 18.1529C18.8618 17.444 19.26 16.4825 19.26 15.48C19.26 13.3875 17.5725 11.6775 15.48 11.6775C14.4715 11.6775 13.5043 12.0781 12.7912 12.7912C12.0781 13.5043 11.6775 14.4715 11.6775 15.48C11.6775 17.5725 13.3875 19.26 15.48 19.26ZM18.6075 41.625V22.7925H12.375V41.625H18.6075Z" fill="#9F9D9D" fill-opacity="0.61"/>
</svg>
