<svg width="258" height="130" viewBox="0 0 258 130" fill="none" xmlns="http://www.w3.org/2000/svg">
<g clip-path="url(#clip0)">
<path fill-rule="evenodd" clip-rule="evenodd" d="M240.219 53.8369C239.987 53.9188 239.754 54.8226 239.754 55.315C239.708 58.6024 239.661 67.3124 239.661 73.2283C239.661 73.393 239.8 73.7215 239.94 73.7215C240.637 73.8035 242.311 73.8854 243.753 73.8854C245.752 73.8854 246.915 73.393 247.567 72.9006C249.24 71.4207 250.031 68.2161 250.031 64.6821C250.031 56.7129 246.869 53.6722 242.172 53.6722C241.846 53.5903 240.917 53.5903 240.219 53.8369ZM252.217 90.5663C252.217 82.4315 248.822 77.9118 242.684 77.9118C242.405 77.9118 240.451 77.8299 239.986 77.9937C239.847 78.0766 239.661 78.2413 239.661 78.4879C239.661 84.321 239.614 93.6071 239.754 97.2222C239.847 98.7831 240.498 101.002 241.289 101.659C242.125 102.481 244.032 102.645 245.334 102.645C249.008 102.645 252.217 99.0297 252.217 90.5663ZM230.733 49.3181C231.198 49.3181 232.592 49.5638 236.173 49.5638C239.568 49.5638 242.265 49.4 245.567 49.4C249.612 49.4 255.192 51.9466 255.192 62.6288C255.192 67.8876 253.099 72.0787 250.356 74.1329C250.217 74.2148 250.217 74.3787 250.356 74.4606C254.262 76.1871 257.704 80.4593 257.704 88.5113C257.704 96.4003 254.914 101.412 250.868 104.535C248.403 106.425 245.334 107.082 242.219 107.082C239.847 107.082 233.476 106.589 229.942 106.754C229.571 106.506 230.268 103.549 230.593 103.056C231.43 102.973 232.081 102.891 232.965 102.398C234.221 101.824 234.36 101.166 234.546 97.7974C234.639 94.9213 234.639 84.7315 234.639 77.5013C234.639 67.559 234.686 60.8213 234.639 57.5348C234.593 54.9882 234.081 54.1655 233.058 53.6722C232.267 53.4264 230.965 53.097 229.896 52.8512C229.663 52.4398 230.453 49.6457 230.733 49.3181ZM203.901 100.427C205.018 101.987 207.203 102.644 209.156 102.644C211.667 102.644 214.178 101.824 216.596 97.9603C219.061 94.0176 220.781 87.937 220.781 78.2413C220.781 68.9552 218.782 61.3956 214.69 56.9596C212.365 54.4112 209.389 53.3445 205.947 53.3445C204.925 53.3445 203.948 53.4264 203.344 53.9188C203.204 54.0835 202.879 54.8226 202.879 55.2331C202.785 56.8768 202.785 69.5304 202.785 76.9261C202.785 84.5676 202.785 95.2499 202.879 96.4822C202.879 97.7155 203.204 99.6049 203.902 100.427H203.901ZM193.345 49.3172C194.229 49.3172 197.623 49.5638 199.251 49.5638C202.181 49.5638 204.273 49.3181 209.807 49.3181C214.457 49.3181 218.363 51.5361 221.153 55.7263C224.548 60.9032 226.315 68.0523 226.315 76.7614C226.315 89.1693 223.106 96.3184 219.898 100.427C216.69 104.617 212.504 107.082 206.552 107.082C203.39 107.082 197.949 106.918 193.438 106.835H193.392C193.16 106.096 193.764 103.22 194.136 103.138C195.345 102.891 195.671 102.809 196.275 102.399C197.252 101.741 197.438 100.837 197.578 97.7974C197.717 92.1272 197.67 85.3076 197.67 77.5833C197.67 72.0787 197.717 61.3137 197.623 57.8624C197.484 54.9873 196.787 54.2474 195.392 53.7541C194.694 53.5083 193.764 53.1789 192.462 52.9331C192.276 52.357 193.113 49.8105 193.345 49.3181V49.3172Z" fill="#8E714E"/>
<path fill-rule="evenodd" clip-rule="evenodd" d="M137.079 103.63C135.917 103.384 135.08 103.056 134.057 102.234C133.917 102.07 133.684 101.249 133.684 100.919C133.592 98.0431 133.592 89.8264 133.592 84.3219C133.592 79.8841 133.173 76.0224 132.104 73.3111C130.848 70.1875 129.035 68.3809 126.709 68.3809C124.663 68.3809 121.92 70.8455 119.641 74.2968C119.595 74.3787 119.223 74.9548 119.269 74.0501C119.269 73.1463 119.362 71.3388 119.409 70.1056C119.456 68.9552 119.083 68.3809 119.083 68.3809C117.595 69.6951 113.41 71.4207 111.875 71.6665C110.76 72.0787 110.48 73.9682 111.643 74.6253H111.69C112.945 75.2824 113.782 76.0224 114.433 76.7623C114.898 77.4194 114.851 78.3232 114.851 79.0631C114.898 85.2248 114.898 94.6747 114.759 99.8515C114.712 101.906 114.387 102.645 113.549 102.973L113.642 102.891C112.991 103.138 112.48 103.384 111.689 103.549C111.41 104.042 111.41 106.671 111.689 107.246C112.201 107.246 114.898 107 117.131 107C120.199 107 121.781 107.246 122.571 107.246C122.896 106.589 122.989 104.124 122.804 103.549C121.92 103.467 121.269 103.303 120.664 102.973C119.827 102.644 119.595 101.906 119.548 100.18C119.456 95.8242 119.456 86.6218 119.456 80.3774C119.456 78.6517 119.734 77.8299 120.013 77.3366C121.083 75.6938 122.804 74.5434 124.338 74.5434C125.826 74.5434 126.802 75.3652 127.546 76.4337C128.569 77.9118 128.895 80.0488 129.034 81.6097C129.267 85.1428 129.174 92.1272 129.174 98.2078C129.174 101.494 129.034 102.316 128.337 102.727C128.011 102.973 127.174 103.303 126.198 103.466C125.872 104.042 125.966 106.589 126.198 107.164C127.546 107.164 129.128 106.918 131.453 106.918C134.335 106.918 136.196 107.164 136.94 107.164C137.172 106.671 137.265 104.288 137.079 103.63ZM149.96 72.2435C147.496 72.2435 145.961 75.6119 145.961 80.8698C145.961 86.2113 147.309 92.3739 151.123 92.3739C151.774 92.3739 152.983 91.8806 153.54 90.7302C154.424 89.2521 155.029 86.2933 155.029 83.1706C155.029 76.3509 153.122 72.2426 149.96 72.2426V72.2435ZM149.635 108.561C148.705 108.561 148.053 109.054 147.635 109.465C145.682 111.682 144.799 113.819 144.799 116.368C144.799 118.75 145.31 120.639 146.426 122.283C147.775 124.337 149.635 125.324 152.006 125.324C156.749 125.324 158.842 120.804 158.842 116.368C158.842 113.244 157.958 111.19 156.145 110.041C154.843 109.054 152.471 108.561 149.635 108.561ZM149.96 129.925C147.124 129.925 145.077 128.857 143.31 126.474C141.59 124.173 140.846 120.722 140.846 118.339C140.846 117.682 140.939 115.874 141.776 114.231C142.287 113.244 143.404 111.355 146.054 108.15C146.147 108.068 146.193 107.986 146.193 107.821C146.193 107.657 146.1 107.492 146.007 107.411C143.822 105.932 143.171 103.549 142.984 102.234V102.07C142.939 101.576 142.845 101.084 143.264 100.591C143.59 100.18 144.055 99.6868 144.566 99.1125C145.356 98.2898 146.193 97.386 146.705 96.6461C146.798 96.4822 146.798 96.3184 146.798 96.1537C146.798 95.9889 146.705 95.8242 146.612 95.7432C143.357 93.8528 141.73 89.5798 141.73 83.1706C141.73 78.9803 142.799 75.2005 144.705 72.8178C146.007 71.0102 149.263 68.7913 151.402 68.7913H151.541C153.727 68.8733 154.936 69.6951 156.656 70.7636C157.586 71.3388 158.47 71.5846 159.679 71.5846C161.492 71.5846 162.283 70.5989 162.934 69.4494C162.98 69.6132 163.074 70.0246 163.12 71.0922C163.166 72.1607 162.98 73.7215 162.515 74.872C162.143 75.7757 161.306 76.4337 160.469 76.4337H160.237C159.4 76.269 159.027 76.1043 159.027 76.1043L158.842 76.269C158.796 76.4337 158.842 76.5976 158.888 76.8442L158.935 77.0089C159.028 77.748 159.214 79.966 159.214 80.5421C159.214 87.2798 157.679 90.2369 156.052 92.4558C154.47 94.51 152.657 95.8242 150.611 96.1537C150.565 96.1537 150.379 96.1537 149.96 96.2356C149.728 96.2356 149.402 96.3184 149.355 96.3184H149.309C148.937 96.4822 148.007 97.3041 148.007 98.7002C148.007 99.9326 148.426 101.412 150.425 101.659C150.843 101.741 151.262 101.741 151.727 101.824C154.378 102.151 157.679 102.563 159.214 103.467C161.353 104.863 162.701 108.232 162.701 112.259C162.701 118.34 160.237 124.009 156.145 127.542C154.145 129.103 152.145 129.925 149.96 129.925ZM176.465 72.6539C175.489 72.6539 174.606 73.0635 173.955 73.8854C172.141 75.8576 171.211 79.8022 171.211 85.5533C171.211 96.3184 174.28 103.878 178.651 103.878C179.954 103.878 180.976 103.22 181.86 101.906C183.208 99.9326 183.906 95.9889 183.906 90.4835C183.906 79.8022 180.883 72.6531 176.466 72.6531L176.465 72.6539ZM177.303 107.822C169.398 107.822 166.561 97.5507 166.561 87.937C166.561 81.1992 168.096 76.0224 171.164 72.3245C173.35 69.9418 175.955 68.6275 178.28 68.6275C184.324 68.6275 188.556 76.269 188.556 87.2798C188.556 94.7566 186.882 100.673 183.673 104.288C182.139 106.096 179.488 107.822 177.302 107.822H177.303ZM94.4376 72.6531C93.461 72.6531 92.5777 73.0635 91.9261 73.8854C90.1131 75.8576 89.1829 79.8022 89.1829 85.5533C89.1829 96.3184 92.2517 103.878 96.6231 103.878C97.9251 103.878 98.9481 103.22 99.8319 101.906C101.18 99.9326 101.878 95.9889 101.878 90.4835C101.878 79.8022 98.9017 72.6531 94.4376 72.6531ZM95.2746 107.822C87.3693 107.822 84.5328 97.5507 84.5328 87.937C84.5328 81.1992 86.0672 76.0224 89.136 72.3245C91.322 69.9418 93.9261 68.6275 96.2512 68.6275C102.297 68.6275 106.528 76.269 106.528 87.2798C106.528 94.7566 104.854 100.673 101.645 104.288C100.157 106.096 97.5064 107.822 95.2746 107.822ZM42.1236 107C42.0303 106.754 41.9371 106.014 41.984 105.11C41.984 104.452 42.0772 104.042 42.1236 103.878C43.1001 103.63 43.6116 103.384 44.1694 103.138C45.0996 102.727 45.4715 101.824 45.5179 99.7696C45.658 94.8394 45.658 85.4714 45.6111 78.9803V78.8156C45.6111 78.0765 45.6111 77.1719 45.0996 76.5148C44.3554 75.6938 43.472 74.9548 42.3095 74.3778C41.8913 74.1329 41.6121 73.7215 41.6585 73.2291C41.6585 72.7359 41.9376 72.1607 42.5423 71.9959C44.0767 71.7493 48.0752 70.0246 49.6565 68.7913C49.7497 68.9552 49.8893 69.4494 49.8893 70.1065L49.8429 71.0094C49.796 71.914 49.7497 72.9825 49.7497 74.0501C49.7497 74.3787 49.9361 74.6253 50.1216 74.6253C50.2148 74.6253 50.308 74.5434 50.4007 74.4606C53.3768 70.3522 56.0737 68.8733 57.4685 68.8733C59.7477 68.8733 61.5149 70.7636 62.8633 74.7072C62.9561 74.9548 63.0493 75.0367 63.1889 75.0367C63.2816 75.0367 63.4207 74.9548 63.4675 74.79C66.2113 71.0922 68.9551 68.8733 70.7681 68.8733C75.0926 68.8733 77.6505 74.5434 77.6505 84.1572C77.6505 86.8685 77.6505 90.4016 77.6041 93.6071C77.6041 96.4822 77.5578 99.1116 77.5578 101.002C77.5578 101.412 77.8828 102.727 78.3942 102.973C79.0453 103.549 79.9291 103.795 81.0917 104.124H81.138C81.2312 104.699 81.0453 106.835 80.8593 107.246C80.5802 107.246 80.1614 107.246 79.6968 107.164C78.5197 107.056 77.3412 107.001 76.1624 107C73.2796 107 71.7916 107.082 70.3494 107.246C70.2572 106.589 70.2103 104.617 70.3494 104.124C71.1869 103.878 71.6051 103.63 72.1171 103.385C73.0473 102.891 73.2796 102.151 73.3265 100.015C73.3265 98.4545 73.5119 85.1428 73.2327 81.9383C72.9541 78.6518 71.5588 74.79 68.4895 74.79C67.327 74.79 65.5139 75.6119 63.7467 77.9937C63.654 78.1585 63.5602 78.5689 63.5602 78.8156V78.8984C63.7467 80.6231 63.7467 82.5963 63.7467 85.6361V90.9768C63.7467 94.6747 63.6998 98.1259 63.7467 100.754C63.7467 102.563 64.3514 102.973 64.8628 103.303C65.142 103.384 65.3274 103.467 65.5603 103.549C65.9785 103.713 66.3972 103.878 67.0483 104.124C67.1415 104.453 67.1415 105.521 67.0019 106.425C66.9551 106.918 66.8618 107.164 66.8155 107.246C65.2347 107.164 63.6071 107.082 61.2357 107.082C60.5383 107.082 59.3289 107.164 58.306 107.164C57.4685 107.164 56.6784 107.246 56.2138 107.246C56.1669 107.082 56.0737 106.507 56.0737 105.603C56.0737 104.864 56.1669 104.288 56.2602 104.124C56.4925 104.042 56.6784 103.96 56.9112 103.96C57.4685 103.795 57.9341 103.63 58.3987 103.467C59.1899 103.056 59.4685 102.316 59.5149 100.509C59.6545 96.4003 59.7941 84.6505 59.4685 81.6916C58.9107 76.9261 57.3763 74.5434 54.9112 74.5434C53.47 74.5434 51.656 75.7757 50.1684 77.7489C49.9356 78.0765 49.7497 78.8975 49.7497 79.6374V84.4857C49.7497 90.4016 49.7497 97.7974 49.796 101.002C49.8429 101.987 50.0283 103.138 51.0981 103.549C51.3309 103.63 51.7028 103.795 52.1679 103.878L53.0044 104.124C53.0981 104.617 53.0513 106.589 52.8653 107.246C52.4002 107.246 51.8424 107.164 51.1909 107.164C50.2148 107.082 48.9591 107 47.5642 107C45.9366 107 44.7741 107.082 43.8439 107.164C43.1929 107 42.6814 107 42.1236 107Z" fill="white"/>
<path fill-rule="evenodd" clip-rule="evenodd" d="M17.6635 126.721L15.7572 125.569C15.7572 125.569 15.99 108.397 12.502 107.164C10.1774 102.398 12.8749 -94.9704 21.2447 106.506C21.2447 106.506 18.3614 109.053 17.8499 113.409C17.2916 117.682 17.6635 126.721 17.6635 126.721Z" fill="white"/>
<path fill-rule="evenodd" clip-rule="evenodd" d="M17.6635 126.721L15.7572 125.569C15.7572 125.569 15.99 108.397 12.502 107.164C10.1774 102.398 12.8749 -94.9704 21.2447 106.506C21.2447 106.506 18.3614 109.053 17.8499 113.409C17.2916 117.682 17.6635 126.721 17.6635 126.721Z" fill="#A6A385"/>
<path fill-rule="evenodd" clip-rule="evenodd" d="M18.6869 110.122C18.6869 110.122 35.3813 90.7302 31.4745 50.3848C27.7083 21.052 18.8265 11.4382 17.8499 7.74033C16.7806 5.11095 15.7572 0.510193 15.7572 0.510193L16.4551 82.1021C16.4551 82.1849 15.0134 107.082 18.6874 110.123" fill="white"/>
<path fill-rule="evenodd" clip-rule="evenodd" d="M18.6869 110.122C18.6869 110.122 35.3813 90.7302 31.4745 50.3848C27.7083 21.052 18.8265 11.4382 17.8499 7.74033C16.7806 5.11095 15.7572 0.510193 15.7572 0.510193L16.4551 82.1021C16.4551 82.1849 15.0134 107.082 18.6874 110.123" fill="#499D4A"/>
<path fill-rule="evenodd" clip-rule="evenodd" d="M14.7811 111.19C14.7811 111.19 -0.89038 92.2911 0.0398309 59.0137C0.923178 25.7355 11.9905 9.38401 14.1296 6.42607C15.5249 3.79668 15.5712 2.81011 15.6645 0.180725C16.641 3.8786 16.4551 55.4806 16.5942 61.5603C17.0124 84.9781 15.8504 106.754 14.7811 111.19Z" fill="white"/>
<path fill-rule="evenodd" clip-rule="evenodd" d="M14.7811 111.19C14.7811 111.19 -0.89038 92.2911 0.0398309 59.0137C0.923178 25.7355 11.9905 9.38401 14.1296 6.42607C15.5249 3.79668 15.5712 2.81011 15.6645 0.180725C16.641 3.8786 16.4551 55.4806 16.5942 61.5603C17.0124 84.9781 15.8504 106.754 14.7811 111.19Z" fill="#58AA50"/>
</g>
<defs>
<clipPath id="clip0">
<rect width="258" height="130" fill="white"/>
</clipPath>
</defs>
</svg>
