<svg width="24" height="24" viewBox="0 0 24 24" fill="none" xmlns="http://www.w3.org/2000/svg">
<path d="M19.536 9.146C18.163 9.146 17.403 10.16 17.242 11.262H21.85C21.725 10.212 20.983 9.147 19.536 9.147V9.146ZM17.276 12.764C17.511 13.92 18.469 14.734 19.808 14.734C20.533 14.734 21.578 14.464 22.192 13.82L23.367 15.17C22.303 16.28 20.714 16.596 19.627 16.596C16.987 16.596 14.93 14.69 14.93 11.99C14.93 9.45499 16.824 7.37 19.5 7.37C22.085 7.37 24 9.35 24 11.974V12.74H17.277V12.763L17.276 12.764ZM10.789 16.594V10.904C10.789 9.928 10.354 9.368 9.451 9.368C8.637 9.368 8.096 9.953 7.734 10.375V16.615H5.384V10.915C5.384 9.939 4.969 9.383 4.066 9.383C3.253 9.383 2.691 9.969 2.349 10.389V16.629H0V7.505H2.35V8.65499C2.75 8.19199 3.652 7.395 5.06 7.395C6.307 7.395 7.156 7.92099 7.537 8.98499C8.061 8.22399 9.037 7.395 10.447 7.395C12.147 7.395 13.137 8.405 13.137 10.358V16.598H10.784L10.789 16.591V16.594Z" fill="white"/>
</svg>
