<svg width="55" height="55" viewBox="0 0 200 200" fill="none" xmlns="http://www.w3.org/2000/svg">
<path d="M193.978 100C197.304 100 200.019 97.3015 199.819 93.9819C198.64 74.423 191.735 55.5914 179.899 39.8651C166.853 22.5313 148.523 9.91029 127.676 3.90607C106.829 -2.09815 84.5941 -1.15987 64.3267 6.57936C44.0593 14.3186 26.8585 28.4389 15.3191 46.8102C3.77975 65.1815 -1.47223 86.8072 0.355522 108.425C2.18327 130.042 10.9916 150.479 25.4517 166.652C39.9117 182.826 59.2392 193.857 80.5182 198.084C99.8239 201.919 119.786 199.963 137.917 192.533C140.994 191.272 142.247 187.655 140.803 184.659C139.359 181.663 135.766 180.426 132.678 181.661C116.91 187.971 99.6068 189.597 82.8644 186.272C64.148 182.554 47.1482 172.851 34.4296 158.625C21.711 144.4 13.9634 126.424 12.3558 107.41C10.7482 88.396 15.3676 69.3748 25.5173 53.2159C35.667 37.0571 50.7963 24.6373 68.6229 17.8301C86.4494 11.0229 106.006 10.1976 124.343 15.4787C142.68 20.7599 158.801 31.8609 170.276 47.1072C180.541 60.7455 186.589 77.0389 187.751 93.9828C187.978 97.3006 190.653 100 193.978 100Z" fill="white"/>
<rect x="44" y="69.9412" width="10" height="100.744" rx="5" transform="rotate(-47.5087 44 69.9412)" fill="white"/>
<rect x="102.996" y="48" width="10" height="117" rx="5" transform="rotate(16.4955 102.996 48)" fill="white"/>
<rect width="10" height="58.2333" rx="5" transform="matrix(-0.793988 -0.607934 -0.607934 0.793988 156.342 87.8911)" fill="white"/>
<rect x="146" y="83.5099" width="10" height="118" rx="5" transform="rotate(-9.77737 146 83.5099)" fill="white"/>
</svg>
