<svg width="140" height="149" viewBox="0 0 140 149" fill="none" xmlns="http://www.w3.org/2000/svg">
<path d="M70 148.724C67.8262 148.724 65.7973 148.177 63.9133 147.221L44.6376 136.427C41.7391 134.924 43.1884 134.378 44.0579 134.104C47.9708 132.875 48.6954 132.601 52.7532 130.415C53.1885 130.142 53.7682 130.278 54.2024 130.552L68.9855 138.886C69.5652 139.16 70.2898 139.16 70.7246 138.886L128.551 107.325C129.131 107.051 129.421 106.505 129.421 105.822V42.8339C129.421 42.1507 129.131 41.6042 128.551 41.331L70.7246 9.90538C70.1449 9.63213 69.4203 9.63213 68.9855 9.90538L11.159 41.3315C10.5793 41.6047 10.2895 42.2879 10.2895 42.8344V105.822C10.2895 106.368 10.5793 107.051 11.159 107.325L26.9566 115.932C35.5075 120.031 40.8691 115.249 40.8691 110.467V48.2989C40.8691 47.4792 41.5942 46.6594 42.6087 46.6594H50.0002C50.8698 46.6594 51.7393 47.3425 51.7393 48.2989V110.466C51.7393 121.26 45.5071 127.545 34.6374 127.545C31.3042 127.545 28.6956 127.545 21.3046 124.13L6.08672 115.932C2.31875 113.882 0 110.057 0 105.958V42.971C0 38.8722 2.31875 35.0467 6.08672 32.9968L63.9133 1.43506C67.5363 -0.477704 72.4637 -0.477704 76.0867 1.43506L133.913 32.9968C137.681 35.0462 140 38.8717 140 42.971V105.958C140 110.057 137.681 113.883 133.913 115.932L76.0867 147.495C74.2027 148.315 72.0289 148.724 70 148.724V148.724ZM87.8259 105.411C62.4635 105.411 57.2463 94.4812 57.2463 85.1901C57.2463 84.3703 57.9709 83.5506 58.9854 83.5506H66.5213C67.3909 83.5506 68.116 84.0971 68.116 84.9168C69.2754 92.158 72.6086 95.7108 87.9709 95.7108C100.145 95.7108 105.363 93.1149 105.363 86.9667C105.363 83.4139 103.913 80.818 84.9275 79.0414C69.1305 77.5385 59.2752 74.2595 59.2752 62.373C59.2752 51.3052 69.1299 44.7471 85.6521 44.7471C104.203 44.7471 113.333 50.7587 114.493 63.8753C114.493 64.2852 114.348 64.6951 114.058 65.105C113.768 65.3782 113.333 65.6515 112.899 65.6515H105.363C104.637 65.6515 103.913 65.105 103.768 64.4219C102.029 56.9074 97.5363 54.4481 85.6521 54.4481C72.3193 54.4481 70.7246 58.8202 70.7246 62.0992C70.7246 66.0619 72.6086 67.291 90.5795 69.477C108.406 71.663 116.811 74.806 116.811 86.5563C116.666 98.58 106.232 105.411 87.8259 105.411Z" fill="#539E43"/>
</svg>
