<svg width="171" height="223" viewBox="0 0 171 223" fill="none" xmlns="http://www.w3.org/2000/svg">
<path d="M77.4096 142.03C77.8329 149.302 77.7506 156.61 77.1638 163.863C77.1391 164.883 76.9094 165.876 76.4977 166.743C76.0859 167.61 75.5066 168.321 74.8179 168.804C70.3772 173.104 55.4949 174.135 53.6406 164.999C52.9566 164.964 53.5017 162.009 52.8497 162.121C51.548 161.981 50.2896 161.445 49.1758 160.556C48.062 159.666 47.124 158.448 46.4372 156.999C46.4639 147.006 47.3082 110.956 33.6122 120.664C30.636 122.827 28.404 126.388 27.3707 130.622C26.4479 134.316 26.0142 138.188 26.0882 142.072C25.9813 147.048 26.9325 152.49 27.0715 158.462C27.1249 161.131 27.4509 161.807 25.9279 164.079C23.4751 167.738 19.1948 164.651 16.8809 160.63C15.9024 158.604 15.3648 156.27 15.3259 153.877C13.4856 127.773 15.2963 101.45 20.6697 76.1893C22.6308 67.6177 23.3148 66.3773 29.5563 64.4539C36.6582 62.4168 43.9619 61.8524 51.1985 62.7814C56.8148 60.3981 70.1421 47.492 75.892 57.736C84.6164 55.2099 93.6403 54.9876 102.432 57.0821C111.223 59.1766 119.604 63.5456 127.08 69.9313C134.652 70.6787 142.251 70.8579 149.839 70.4679C150.908 69.5759 152.158 68.6212 153.248 67.7989C154.048 67.0922 154.947 66.5974 155.893 66.3424C157.122 66.0916 158.725 66.0219 159.1 68.0149C159.425 70.0603 159.535 72.154 159.425 74.238C159.388 75.4944 159.03 76.6984 158.407 77.6582C157.784 78.618 156.933 79.2785 155.989 79.5343C153.856 79.0776 151.788 78.2036 149.855 76.9419C142.908 77.1928 138.633 76.691 131.686 76.9419C132.803 78.5029 132.755 79.5343 133.567 81.597C135.564 88.4492 136.23 95.8388 135.508 103.108C134.785 110.378 132.696 117.301 129.426 123.263C128.934 133.647 129.533 144.135 129.591 154.553C129.618 158.142 129.81 161.556 127.219 163.94C124.933 165.727 122.363 166.807 119.707 167.097C117.052 167.387 114.38 166.879 111.898 165.612C110.545 164.6 109.338 163.289 108.329 161.738C107.441 161.864 106.547 161.888 105.657 161.807C104.143 161.255 102.834 160.005 101.975 158.288C101.482 157.114 101.062 155.891 100.719 154.63C100.719 149.751 100.58 147.842 100.58 142.971C92.8761 144.769 84.9707 144.48 77.3562 142.121L77.4096 142.03Z" fill="#CCCCCC"/>
<path d="M64.6329 173.097C62.4258 173.14 60.2283 172.706 58.1296 171.814C56.9645 171.406 55.8883 170.65 54.9867 169.605C54.085 168.56 53.3827 167.255 52.9354 165.793C52.546 165.161 52.355 164.359 52.4011 163.55V163.236C51.0428 162.97 49.7439 162.329 48.5917 161.354C47.4396 160.379 46.4608 159.094 45.7214 157.584L45.5931 157.312V155.501C45.6412 147.264 45.7641 125.375 40.0677 120.922C39.1089 120.314 38.0415 120.058 36.9798 120.181C35.918 120.304 34.9018 120.801 34.0399 121.619C31.2322 123.659 29.1292 127.022 28.1618 131.019C27.2808 134.592 26.8689 138.334 26.9434 142.086C26.9437 144.884 27.0954 147.678 27.3977 150.448C27.6274 152.999 27.8626 155.647 27.932 158.427C27.932 158.839 27.932 159.194 27.9694 159.515C28.0911 160.478 28.0279 161.466 27.7854 162.391C27.543 163.315 27.1289 164.146 26.5801 164.811C26.146 165.479 25.5996 166.008 24.9832 166.356C24.3669 166.704 23.6973 166.862 23.0265 166.818C21.6571 166.571 20.3426 165.952 19.1681 165.002C17.9936 164.051 16.9851 162.789 16.2078 161.299C15.1119 159.115 14.5151 156.57 14.4872 153.961C12.6232 127.719 14.4486 101.255 19.8737 75.8687C21.8776 67.1229 22.7593 65.4156 29.3802 63.3737C36.5133 61.3265 43.8479 60.7457 51.1186 61.6525C52.7168 60.8409 54.278 59.9102 55.7943 58.8649C62.3778 54.5722 71.3447 48.7394 76.2663 56.5374C84.9892 54.0826 93.9989 53.9076 102.774 56.0224C111.549 58.1372 119.916 62.4999 127.39 68.8581C134.788 69.5836 142.212 69.7511 149.625 69.3599C150.694 68.5027 151.827 67.6107 152.864 66.8302L153.163 66.6072C153.964 65.9211 154.861 65.4475 155.803 65.2135C158.175 64.7326 159.543 65.5828 159.955 67.7292C160.297 69.8798 160.414 72.0812 160.302 74.2729C160.248 75.7956 159.802 77.25 159.034 78.3999C158.267 79.5498 157.224 80.3278 156.075 80.6075H155.936L155.803 80.5587C155.341 80.4049 154.878 80.2609 154.413 80.1266C152.746 79.7544 151.131 79.0542 149.625 78.0499C146.243 78.1614 143.453 78.0987 140.76 78.0499C138.446 78.0011 136.068 77.9454 133.311 78.0011C133.482 78.4402 133.605 78.8653 133.738 79.2973C133.912 79.9063 134.112 80.5019 134.337 81.0813C136.41 88.0829 137.123 95.6443 136.414 103.092C135.704 110.541 133.594 117.645 130.27 123.772C129.971 130.504 130.126 137.41 130.27 144.093C130.35 147.514 130.43 151.062 130.447 154.546V155.145C130.704 156.935 130.585 158.783 130.102 160.492C129.62 162.201 128.791 163.708 127.705 164.853C125.305 166.759 122.598 167.912 119.798 168.223C116.997 168.534 114.18 167.993 111.567 166.644C110.417 165.901 109.392 164.865 108.553 163.598C108.366 163.347 108.179 163.097 107.987 162.86C107.725 162.86 107.452 162.901 107.212 162.936C106.627 163.056 106.03 163.042 105.448 162.894C103.73 162.274 102.243 160.86 101.264 158.915C100.888 158.124 100.582 157.28 100.351 156.4C100.225 155.958 100.09 155.521 99.9444 155.089L99.8696 154.873V154.636C99.8696 152.218 99.8375 150.497 99.8001 148.838C99.7734 147.445 99.7467 146.051 99.736 144.246C92.6424 145.768 85.3934 145.55 78.361 143.605C78.6823 150.414 78.5661 157.246 78.0137 164.03C77.9735 165.193 77.7072 166.323 77.2397 167.314C76.7723 168.305 76.1192 169.125 75.3418 169.696C72.0863 172.113 68.3762 173.292 64.6329 173.097ZM54.1111 163.912H54.3034L54.4638 164.706C54.787 165.938 55.3441 167.043 56.0833 167.918C56.8224 168.793 57.7194 169.409 58.6907 169.71C63.878 171.772 69.4768 171.125 74.3051 167.905C74.8985 167.511 75.3985 166.913 75.7516 166.177C76.1046 165.44 76.2972 164.592 76.309 163.724C76.8675 156.835 76.9658 149.896 76.6029 142.985L76.1487 142.817L78.019 137.981L78.2381 141.208C85.5611 143.319 93.1314 143.528 100.516 141.821L101.483 141.654V142.922C101.483 145.34 101.515 147.061 101.553 148.72C101.59 150.379 101.617 152.016 101.622 154.344C101.756 154.755 101.874 155.152 101.991 155.535C102.18 156.265 102.429 156.966 102.734 157.626C103.482 159.121 104.622 160.211 105.94 160.692C106.323 160.767 106.712 160.767 107.094 160.692C107.527 160.625 107.963 160.595 108.398 160.602H108.719L108.954 160.887C109.243 161.236 109.531 161.619 109.82 162.002C110.506 163.051 111.34 163.917 112.278 164.553C114.625 165.747 117.151 166.228 119.662 165.957C122.174 165.687 124.605 164.673 126.77 162.992C128.843 161.083 128.817 158.462 128.785 155.138V154.532C128.785 151.048 128.688 147.563 128.608 144.135C128.453 137.256 128.293 130.141 128.608 123.166V122.706L128.875 122.399C132.026 116.621 134.034 109.919 134.723 102.887C135.412 95.8549 134.76 88.7097 132.825 82.0848C132.571 81.4354 132.346 80.7676 132.151 80.0848C131.936 79.1878 131.571 78.3643 131.082 77.6736L129.795 75.8687L131.681 75.799C135.176 75.6736 138.029 75.7363 140.797 75.799C143.565 75.8617 146.382 75.9244 149.834 75.799H150.085L150.299 75.9732C151.692 76.9577 153.199 77.638 154.761 77.9872C155.199 78.1196 155.632 78.245 156.054 78.3844C156.757 78.0994 157.375 77.5393 157.825 76.78C158.276 76.0208 158.536 75.0992 158.571 74.1405C158.673 72.1637 158.568 70.1781 158.261 68.2379C158.186 67.8128 158.042 67.0114 156.038 67.4226C155.305 67.6105 154.608 67.9846 153.986 68.5236L153.687 68.7466C152.618 69.5411 151.394 70.5097 150.315 71.3878L150.117 71.5481H149.887C142.265 71.9551 134.632 71.7759 127.027 71.0115H126.802L126.615 70.8442C119.233 64.5319 110.955 60.2156 102.271 58.1507C93.5866 56.0859 84.673 56.3145 76.0578 58.8231L75.5235 58.9486L75.2082 58.3911C71.2164 51.283 62.7359 56.8092 56.5425 60.8441C54.9028 61.9878 53.2069 62.9889 51.4659 63.8406L51.2949 63.9103H51.1186C43.9716 62.9908 36.7581 63.5459 29.7436 65.5549C23.7532 67.3947 23.3311 68.3425 21.4768 76.5238C16.104 101.646 14.293 127.837 16.133 153.807C16.1445 155.988 16.6219 158.121 17.5117 159.968C18.1408 161.191 18.9549 162.234 19.9042 163.032C20.8534 163.83 21.9178 164.366 23.0318 164.609C23.4488 164.64 23.8657 164.544 24.249 164.327C24.6323 164.111 24.9713 163.78 25.2388 163.361C25.6407 162.914 25.9431 162.333 26.1142 161.681C26.2852 161.029 26.3188 160.329 26.2113 159.654C26.2113 159.313 26.1793 158.957 26.1739 158.511C26.0922 155.904 25.9139 153.304 25.6396 150.72C25.327 147.851 25.1717 144.956 25.1747 142.058C25.0965 138.038 25.5502 134.03 26.5159 130.211C27.627 125.74 29.9943 121.983 33.1422 119.695C34.2576 118.673 35.566 118.068 36.926 117.945C38.2859 117.823 39.6457 118.187 40.8586 118.998C47.394 124.106 47.2711 146.107 47.2176 155.501V156.664C47.8292 157.873 48.6394 158.89 49.5896 159.639C50.5398 160.389 51.606 160.853 52.711 160.999C52.8539 160.978 52.9986 160.995 53.1363 161.049C53.274 161.103 53.402 161.193 53.5126 161.313C53.7059 161.595 53.853 161.927 53.9449 162.286C54.0368 162.646 54.0715 163.026 54.0469 163.403C54.095 163.563 54.1004 163.766 54.1111 163.912Z" fill="#CCCCCC"/>
<path d="M74.2301 139.243C74.6535 146.515 74.5712 153.823 73.9843 161.076C73.9597 162.095 73.7299 163.088 73.3182 163.956C72.9065 164.823 72.3272 165.533 71.6384 166.017C67.1978 170.316 52.3154 171.348 50.4611 162.212C49.7771 162.177 50.3222 159.222 49.6703 159.334C48.3685 159.194 47.1101 158.658 45.9963 157.768C44.8825 156.879 43.9445 155.66 43.2578 154.212C43.2845 144.218 44.1288 108.169 30.4328 117.877C27.4566 120.04 25.2246 123.601 24.1913 127.835C23.2684 131.529 22.8347 135.401 22.9088 139.285C22.8019 144.26 23.7531 149.703 23.892 155.675C23.9455 158.344 24.2714 159.02 22.7485 161.292C20.2957 164.95 16.0153 161.863 13.7015 157.842C12.7229 155.817 12.1854 153.483 12.1465 151.09C10.3062 124.985 12.1168 98.6624 17.4902 73.402C19.4514 64.8304 20.1354 63.59 26.3769 61.6666C33.4787 59.6295 40.7824 59.0651 48.0191 59.9941C53.6353 57.6108 66.9627 44.7047 72.7125 54.9488C81.4369 52.4227 90.4609 52.2003 99.2522 54.2949C108.044 56.3894 116.424 60.7583 123.9 67.1441C131.472 67.8915 139.071 68.0706 146.659 67.6807C147.728 66.7887 148.979 65.834 150.069 65.0116C150.869 64.305 151.767 63.8101 152.714 63.5552C153.943 63.3043 155.546 63.2346 155.92 65.2277C156.245 67.273 156.355 69.3667 156.246 71.4508C156.209 72.7071 155.85 73.9111 155.228 74.8709C154.605 75.8308 153.754 76.4912 152.81 76.747C150.677 76.2903 148.609 75.4164 146.675 74.1546C139.728 74.4055 135.453 73.9038 128.507 74.1546C129.623 75.7156 129.575 76.747 130.388 78.8098C132.384 85.6619 133.051 93.0515 132.328 100.321C131.606 107.59 129.516 114.514 126.246 120.476C125.755 130.859 126.353 141.347 126.412 151.766C126.439 155.355 126.631 158.769 124.039 161.153C121.753 162.94 119.184 164.02 116.528 164.31C113.872 164.6 111.201 164.092 108.719 162.825C107.366 161.812 106.158 160.501 105.149 158.95C104.262 159.077 103.368 159.101 102.477 159.02C100.963 158.468 99.6548 157.217 98.7954 155.501C98.3027 154.327 97.8828 153.103 97.5396 151.842C97.5396 146.964 97.4006 145.055 97.4006 140.184C89.6966 141.982 81.7912 141.692 74.1767 139.333L74.2301 139.243Z" fill="#373435"/>
<path d="M61.4532 170.309C59.2461 170.352 57.0487 169.919 54.9499 169.027C53.7848 168.619 52.7087 167.862 51.807 166.817C50.9054 165.772 50.203 164.467 49.7558 163.006C49.3663 162.373 49.1753 161.571 49.2214 160.762V160.448C47.8631 160.183 46.5642 159.541 45.412 158.566C44.2599 157.591 43.2811 156.306 42.5417 154.797L42.4134 154.525V152.713C42.4615 144.476 42.5844 122.587 36.888 118.134C35.9292 117.527 34.8619 117.271 33.8001 117.393C32.7383 117.516 31.7221 118.013 30.8603 118.831C28.0525 120.871 25.9495 124.235 24.9821 128.232C24.1011 131.805 23.6892 135.546 23.7638 139.298C23.7639 142.096 23.9157 144.891 24.218 147.661C24.4478 150.218 24.6829 152.859 24.7524 155.647C24.7524 156.058 24.7524 156.413 24.7898 156.734C24.9114 157.698 24.8482 158.686 24.6057 159.61C24.3633 160.534 23.9492 161.366 23.4004 162.03C22.9666 162.699 22.4202 163.228 21.8038 163.576C21.1874 163.925 20.5176 164.082 19.8468 164.037C18.4774 163.791 17.163 163.172 15.9884 162.221C14.8139 161.27 13.8054 160.009 13.0282 158.518C11.9325 156.334 11.3357 153.789 11.3075 151.18C9.44286 124.936 11.2683 98.4695 16.694 73.0811C18.6979 64.3354 19.5796 62.628 26.2005 60.5862C33.3336 58.5387 40.6682 57.9579 47.9389 58.8649C49.5371 58.0533 51.0983 57.1226 52.6147 56.0774C59.1982 51.7846 68.165 45.9448 73.0866 53.7498C81.8099 51.2964 90.8197 51.1227 99.5948 53.2387C108.37 55.3547 116.736 59.7184 124.21 66.0775C131.599 66.8065 139.015 66.9787 146.419 66.5932C147.461 65.75 148.626 64.8371 149.657 64.0636L149.956 63.8406C150.758 63.1545 151.655 62.6809 152.596 62.4468C154.969 61.966 156.337 62.8162 156.748 64.9625C157.091 67.1131 157.208 69.3145 157.096 71.5062C157.042 73.0289 156.595 74.4833 155.828 75.6332C155.061 76.7832 154.018 77.5611 152.869 77.8408H152.73L152.596 77.792C152.135 77.6383 151.672 77.4942 151.207 77.3599C149.552 76.9786 147.95 76.2738 146.456 75.2693C143.074 75.3808 140.284 75.3181 137.591 75.2693C135.277 75.2205 132.899 75.1648 130.142 75.2205C130.313 75.6596 130.436 76.0847 130.569 76.5167C130.743 77.1257 130.943 77.7213 131.168 78.3007C133.24 85.3025 133.954 92.8637 133.244 100.312C132.535 107.76 130.424 114.864 127.101 120.991C126.802 127.723 126.957 134.629 127.101 141.305C127.176 144.734 127.256 148.274 127.278 151.758V152.358C127.536 154.147 127.417 155.994 126.936 157.703C126.454 159.412 125.627 160.919 124.542 162.065C122.141 163.971 119.434 165.125 116.634 165.435C113.834 165.746 111.016 165.206 108.403 163.856C107.253 163.113 106.228 162.078 105.39 160.811C105.203 160.56 105.015 160.309 104.823 160.072C104.561 160.072 104.289 160.114 104.048 160.149C103.463 160.269 102.866 160.255 102.285 160.107C100.566 159.487 99.0789 158.072 98.1007 156.128C97.7242 155.337 97.4177 154.493 97.1869 153.612C97.0616 153.17 96.9262 152.733 96.7808 152.302L96.7059 152.086V151.849C96.7059 149.431 96.6739 147.709 96.6365 146.051C96.6098 144.657 96.5777 143.263 96.5724 141.459C89.4788 142.98 82.2298 142.763 75.1973 140.817C75.505 147.621 75.3763 154.446 74.8126 161.222C74.7724 162.384 74.5061 163.514 74.0387 164.505C73.5712 165.497 72.9181 166.316 72.1407 166.887C68.8931 169.307 65.1908 170.492 61.4532 170.309ZM50.9314 161.124H51.1238L51.2841 161.919C51.6073 163.15 52.1644 164.255 52.9036 165.13C53.6427 166.005 54.5397 166.622 55.511 166.922C60.6982 168.985 66.2973 168.338 71.1254 165.117C71.7189 164.723 72.2189 164.126 72.5719 163.389C72.9249 162.653 73.1176 161.805 73.1293 160.936C73.6877 154.047 73.786 147.108 73.4232 140.197L72.969 140.03L74.8126 135.228L75.0317 138.455C82.3547 140.567 89.925 140.775 97.3098 139.068L98.277 138.901V140.169C98.277 142.587 98.3091 144.309 98.3465 145.967C98.3839 147.626 98.4106 149.264 98.4159 151.591C98.5495 152.002 98.6671 152.399 98.7847 152.79C98.973 153.52 99.2221 154.221 99.5274 154.88C100.276 156.375 101.415 157.465 102.734 157.947C103.116 158.022 103.505 158.022 103.888 157.947C104.321 157.88 104.756 157.849 105.192 157.856H105.512L105.748 158.142C106.036 158.49 106.325 158.839 106.613 159.257C107.299 160.305 108.134 161.171 109.071 161.807C111.419 163.002 113.945 163.482 116.456 163.211C118.967 162.941 121.398 161.927 123.564 160.246C125.637 158.337 125.61 155.717 125.578 152.392V151.786C125.578 148.302 125.482 144.817 125.402 141.382C125.247 134.504 125.087 127.396 125.402 120.42V119.96L125.669 119.653C128.819 113.875 130.827 107.173 131.516 100.141C132.205 93.1092 131.553 85.9641 129.618 79.3391C129.365 78.6896 129.14 78.0218 128.945 77.339C128.73 76.4421 128.365 75.6185 127.876 74.9279L126.588 73.123L128.475 73.0533C131.969 72.9278 134.823 72.9905 137.591 73.0533C140.359 73.116 143.175 73.1787 146.627 73.0533H146.878L147.092 73.2275C148.485 74.2119 149.993 74.8923 151.554 75.2414C151.992 75.3739 152.425 75.4993 152.847 75.6387C153.55 75.3537 154.169 74.7935 154.619 74.0343C155.069 73.275 155.329 72.3534 155.364 71.3947C155.466 69.418 155.362 67.4324 155.054 65.4922C154.98 65.0671 154.835 64.2726 152.831 64.6768C152.099 64.8645 151.401 65.2387 150.779 65.7779L150.475 66.0009C149.406 66.8023 148.172 67.771 147.103 68.642L146.953 68.7814H146.723C139.102 69.188 131.468 69.0089 123.863 68.2448H123.638L123.441 68.0636C116.059 61.7513 107.781 57.435 99.0965 55.3701C90.4123 53.3053 81.4987 53.5339 72.8835 56.0425L72.3491 56.168L72.0338 55.6105C68.0421 48.5024 59.5615 54.0286 53.3681 58.0635C51.7285 59.2072 50.0326 60.2083 48.2916 61.06L48.1206 61.1297H47.9442C40.7972 60.2098 33.5837 60.7648 26.5692 62.7744C20.5789 64.6141 20.1567 65.5619 18.3024 73.7432C12.9296 98.8656 11.1187 125.056 12.9587 151.027C12.9702 153.207 13.4476 155.341 14.3374 157.187C14.9665 158.41 15.7806 159.453 16.7299 160.251C17.6791 161.049 18.7434 161.586 19.8575 161.828C20.2749 161.864 20.6927 161.769 21.0765 161.552C21.4603 161.335 21.7989 161.002 22.0644 160.581C22.4664 160.133 22.7687 159.553 22.9398 158.901C23.1109 158.248 23.1445 157.548 23.037 156.873C23.037 156.532 23.0049 156.177 22.9996 155.731C22.9179 153.124 22.7396 150.524 22.4652 147.939C22.1525 145.07 21.9971 142.175 22.0003 139.277C21.9222 135.257 22.3759 131.25 23.3416 127.43C24.4527 122.96 26.82 119.203 29.9678 116.915C31.0833 115.893 32.3917 115.288 33.7516 115.165C35.1116 115.042 36.4714 115.406 37.6842 116.218C44.2196 121.326 44.0967 143.326 44.0433 152.72V153.884C44.6626 155.096 45.4823 156.112 46.4422 156.858C47.402 157.603 48.4776 158.058 49.5901 158.19C49.733 158.17 49.8777 158.187 50.0154 158.241C50.1531 158.295 50.2811 158.384 50.3917 158.504C50.585 158.787 50.7321 159.118 50.824 159.478C50.9159 159.837 50.9506 160.217 50.926 160.595C50.9169 160.771 50.9187 160.948 50.9314 161.124Z" fill="#373435"/>
<path d="M99.2444 138.999C100.959 138.783 102.653 138.342 104.3 137.682C105.127 144.007 105.372 150.438 105.032 156.839C103.784 156.941 102.541 156.557 101.462 155.734C100.382 154.911 99.5154 153.687 98.9718 152.219C98.6959 147.812 98.7873 143.38 99.2444 138.999Z" fill="#6978AB"/>
<path d="M104.855 157.954C103.48 158.015 102.121 157.554 100.943 156.628C99.7647 155.701 98.8181 154.349 98.2179 152.734L98.1378 152.539V152.316C97.8586 147.828 97.9518 143.314 98.4156 138.852L98.5011 137.988L99.1638 137.891C100.822 137.68 102.46 137.256 104.053 136.622L104.93 136.253L105.143 137.424C105.947 143.13 106.211 148.944 105.929 154.734L105.886 157.933H105.063L104.855 157.954ZM99.8104 151.891C100.228 152.964 100.851 153.878 101.62 154.544C102.389 155.209 103.277 155.604 104.198 155.689V154.685C104.427 149.477 104.248 144.251 103.663 139.089C102.464 139.501 101.245 139.803 100.013 139.995C99.6404 143.951 99.5706 147.945 99.805 151.919L99.8104 151.891Z" fill="#373435"/>
<path d="M21.6527 158.072C20.4504 147.8 19.2267 129.674 24.859 121.033C25.3047 120.25 25.7865 119.503 26.3018 118.796C35.1884 107.883 42.9315 117.27 45.0316 129.354C45.4768 136.994 45.5678 144.662 45.3042 152.316C45.8291 153.647 46.6394 154.751 47.6364 155.494C48.6334 156.236 49.7743 156.585 50.9204 156.497C51.738 158.699 51.5189 160.337 52.4487 161.793C54.2136 164.377 56.5283 166.216 59.0979 167.078C61.6675 167.939 64.3755 167.783 66.8769 166.63C68.5506 165.704 70.1798 164.648 71.7557 163.466C73.0316 154.118 72.8498 144.531 71.2213 135.277C71.2213 133.995 70.8954 133.145 70.8954 131.863C71.5068 131.977 72.082 132.31 72.5573 132.824C71.4885 137.939 86.2159 141.459 103.396 135.277C103.588 134.385 103.257 133.284 103.669 132.964C103.934 132.747 104.233 132.609 104.545 132.559C104.856 132.51 105.172 132.55 105.469 132.678C105.55 134.316 105.576 135.911 105.662 137.556C106.994 137.72 108.334 137.743 109.67 137.626C108.793 138.654 107.641 139.19 106.463 139.117C106.763 139.117 106.298 139.863 106.57 139.932C107.361 140.183 108.863 139.793 109.488 140.148C108.318 141.04 107.008 140.539 106.218 141.542C106.41 146.978 106.517 152.811 106.682 158.267C109.259 160.818 112.44 162.112 115.672 161.923C118.904 161.735 121.983 160.076 124.376 157.236C124.886 146.318 124.707 135.363 123.841 124.483C123.216 124.378 122.585 124.232 121.96 124.127C131.723 106.998 133.604 89.4717 125.423 73.6527C125.343 72.9558 124.985 72.2589 124.889 71.562C132.006 71.2066 139.317 72.1683 146.456 71.8129C148.383 72.7646 150.372 73.4899 152.398 73.9802C154.498 73.0185 154.878 65.4156 152.81 66.2658C150.742 67.116 149.603 68.8233 147.386 69.8895C139.205 69.8895 130.125 69.4645 121.95 69.4645C115.275 62.5389 107.37 57.9183 98.964 56.0292C90.5583 54.1401 81.9231 55.0435 73.8558 58.6559C76.3405 65.6331 77.7424 73.1824 77.9809 80.869C78.2193 88.5557 77.2896 96.2279 75.2452 103.444C74.7803 105.437 67.7212 111.263 73.4978 104.901C79.3332 98.4335 75.678 53.506 68.5067 53.4294C60.0679 53.5436 51.967 57.7693 45.7958 65.2762C44.6789 63.7152 44.7591 64.3494 45.2614 62.1473C39.158 61.4619 33.0097 62.1693 27.0927 64.2379C25.5591 64.3017 24.0759 64.9669 22.8367 66.1466C21.5974 67.3264 20.6597 68.9659 20.1458 70.8512C14.753 95.984 12.5863 122.107 13.7333 148.163C14.0141 151.287 14.6479 154.34 15.6143 157.222C18.8205 161.807 20.5519 160.49 21.6153 158.072H21.6527Z" fill="url(#paint0_linear)"/>
<path d="M34.4457 72.6282C32.6478 71.6721 30.6955 71.3152 28.7653 71.5898C28.5882 71.5646 28.41 71.6203 28.2609 71.7474C28.1118 71.8745 28.0011 72.0651 27.9477 72.2867C27.8759 72.4472 27.8295 72.6249 27.8111 72.8092C27.7928 72.9935 27.8029 73.1807 27.8408 73.3599C28.0065 73.9662 28.0332 73.9313 28.4393 74.0567C28.9772 74.1614 29.5264 74.0993 30.0425 73.8756C30.6525 73.4564 31.3256 73.2168 32.0143 73.1734C32.7031 73.1301 33.3907 73.2841 34.0289 73.6247C34.6274 73.5898 34.6862 73.2693 34.4938 72.656L34.4457 72.6282Z" fill="#373435"/>
<path d="M28.8885 75.1998C28.6767 75.2008 28.4653 75.1728 28.258 75.1162H28.1885C27.9056 75.0786 27.6397 74.9225 27.4306 74.6712C27.2216 74.4199 27.0806 74.087 27.0289 73.7224C26.9536 73.3948 26.9295 73.0509 26.958 72.711C26.9864 72.371 27.0669 72.042 27.1946 71.7433C27.3185 71.3581 27.5298 71.0315 27.8001 70.8073C28.0704 70.5831 28.3868 70.472 28.7068 70.4889C30.7017 70.2138 32.7181 70.57 34.585 71.5273H35.0231L35.2422 72.2241C35.365 72.487 35.429 72.7893 35.427 73.0971C35.425 73.4049 35.3572 73.7058 35.231 73.9659C35.1049 74.226 34.9255 74.435 34.7132 74.5693C34.5008 74.7036 34.2639 74.7578 34.0292 74.7259H33.901L33.7567 74.6702C33.2304 74.373 32.66 74.2326 32.0868 74.2591C31.5137 74.2856 30.9523 74.4784 30.4436 74.8235L30.3474 74.9001L30.2405 74.935C29.8005 75.0992 29.3461 75.1882 28.8885 75.1998ZM28.6534 72.9489C29.0132 72.9973 29.3768 72.9498 29.7221 72.8095L30.0107 72.6214C29.6366 72.6214 29.2572 72.6214 28.8725 72.698H28.7336L28.7015 72.7816C28.6782 72.8334 28.6619 72.89 28.6534 72.9489Z" fill="#373435"/>
<path d="M30.0428 81.4439C30.287 80.7814 30.6724 80.2247 31.1529 79.8404C31.6333 79.456 32.1886 79.2603 32.7521 79.2767C32.859 78.3847 32.7521 77.8829 31.8757 77.8829C30.6311 78.7057 29.568 79.929 28.787 81.437C28.3386 82.748 28.1955 84.202 28.3755 85.6182C28.4733 86.5862 28.8567 87.4662 29.4443 88.0712C30.0527 88.5679 30.762 88.813 31.4792 88.7744C32.1963 88.7359 32.8878 88.4155 33.4628 87.8552C35.3759 86.3987 37.2889 82.2384 33.9277 80.6704C33.2541 80.499 32.5611 80.505 31.8893 80.6881C31.2175 80.8712 30.5806 81.2277 30.0161 81.7366C29.9626 81.7715 29.9359 81.6321 30.0161 81.4509L30.0428 81.4439Z" fill="#373435"/>
<path d="M31.0794 89.9387C30.2853 89.9592 29.5119 89.6081 28.8991 88.9492C28.143 88.1568 27.6526 87.0124 27.5311 85.7575C27.3134 84.0986 27.5003 82.3924 28.0655 80.8793C28.9206 79.2057 30.0884 77.8435 31.4588 76.9211L31.6458 76.7747H31.8489C32.111 76.7418 32.3755 76.7839 32.6238 76.8983C32.8721 77.0126 33.0982 77.1964 33.2863 77.4368C33.4479 77.7224 33.5593 78.0509 33.6129 78.3989C33.6664 78.7468 33.6608 79.1059 33.5963 79.4507C34.3219 79.5937 34.9977 80.0186 35.5353 80.67C36.073 81.3215 36.4475 82.1691 36.6101 83.1024C36.5793 84.2837 36.3126 85.4341 35.8366 86.4399C35.3605 87.4457 34.6914 88.2722 33.8955 88.8377C33.0467 89.5194 32.0757 89.899 31.0794 89.9387ZM29.3533 82.51C29.1556 83.492 29.112 84.516 29.2251 85.5205C29.3 86.2066 29.5782 86.8271 29.9999 87.2488C31.0313 88.3707 32.7039 87.1721 33.0298 86.9212C33.544 86.563 33.9837 86.0473 34.3114 85.4186C34.639 84.7898 34.8447 84.0667 34.9108 83.3114C34.8627 82.6146 34.4352 82.1128 33.6444 81.7435C32.5327 81.5247 31.3989 81.8688 30.4755 82.7051L30.406 82.7539L29.8343 83.1302L29.364 82.51H29.3533Z" fill="#373435"/>
<path d="M31.5281 86.2802C31.5393 86.5343 31.577 86.7852 31.6403 87.0259C31.6678 87.1382 31.7054 87.2458 31.7526 87.3464C31.5966 87.4815 31.4177 87.5647 31.2314 87.589C31.0452 87.6133 30.8572 87.5779 30.6838 87.4858C29.5028 86.7889 29.5883 84.6286 30.1922 83.4579C30.5085 82.8541 30.9291 82.3554 31.42 82.002C31.911 81.6486 32.4586 81.4503 33.019 81.423C33.6496 81.8481 33.842 82.2453 33.5107 82.3498C33.3235 82.3961 33.1431 82.4808 32.9763 82.6007C32.8494 82.6749 32.7361 82.7835 32.644 82.9193C32.5518 83.0551 32.4829 83.2149 32.4419 83.3882C32.7144 83.4927 32.8534 83.3882 33.0992 83.5276V84.6356C32.8366 84.4636 32.5366 84.4144 32.2495 84.4962C31.7152 84.7123 31.5067 85.7088 31.5067 86.3151L31.5281 86.2802Z" fill="#FEFEFE"/>
<path d="M33.7886 114.699C35.3024 114.275 36.7368 113.465 38.0087 112.314C39.2806 111.162 40.3647 109.694 41.1982 107.992C42.0317 106.291 42.5981 104.391 42.8644 102.402C43.1308 100.413 43.0919 98.3747 42.75 96.4055C41.7934 96.3796 40.856 96.0495 40.0194 95.4439C39.9659 94.9839 39.9392 94.517 39.8804 94.0501C42.0928 95.4439 45.2242 95.862 44.8181 91.4508C45.1173 91.3462 45.5822 91.3114 45.8868 91.1999C45.78 94.294 45.3525 94.5797 43.8936 95.8968C44.3132 99.2702 44.0943 102.726 43.2561 105.964C42.4179 109.202 40.9858 112.124 39.0842 114.476C38.971 115.443 39.037 116.433 39.2766 117.361C38.5771 116.407 37.7187 115.677 36.7679 115.226C35.8171 114.776 34.7995 114.617 33.7939 114.761L33.7886 114.699Z" fill="#373435"/>
<path d="M40.7832 121.193L38.6457 118.113C38.0252 117.28 37.2653 116.645 36.4254 116.258C35.5856 115.871 34.6885 115.743 33.8043 115.883H32.9386V113.932L33.5424 113.618C36.2938 112.883 38.7169 110.777 40.2974 107.75C41.8778 104.722 42.491 101.01 42.0069 97.4021C41.1405 97.3178 40.3017 96.9667 39.5595 96.3777L39.2282 96.1059L39.1694 95.6111L39.0946 94.8794L39.0305 94.2243L38.7847 92.1337L40.2435 93.0536C40.7335 93.464 41.2875 93.727 41.8652 93.8235C42.4429 93.9199 43.0298 93.8473 43.5834 93.6111C43.9254 93.2975 44.0536 92.6146 43.9628 91.5832L43.8826 90.6354L44.588 90.3846C44.7974 90.3167 45.0097 90.2655 45.2239 90.2312C45.3677 90.2092 45.5104 90.1766 45.6514 90.1337L46.7843 89.7295L46.7308 91.2556C46.6186 94.4334 46.0842 95.2348 44.8017 96.4265C45.1356 99.814 44.8631 103.256 44.0055 106.483C43.1479 109.71 41.7285 112.635 39.8588 115.026C39.8599 115.62 39.9228 116.211 40.0458 116.782L40.7832 121.193ZM37.0426 114.169C37.4311 114.331 37.8069 114.541 38.1648 114.796C38.1809 114.559 38.2185 114.325 38.277 114.099L38.3358 113.876L38.4587 113.702C38.9147 113.066 39.3368 112.427 39.7252 111.786C38.9042 112.712 38.0041 113.512 37.0426 114.169Z" fill="#373435"/>
<path d="M118.402 161.765C118.268 159.138 118.022 156.832 117.964 154.197C117.83 148.162 114.314 146.845 114.121 152.88C114.014 156.044 114.121 159.027 114.121 162.009C115.548 162.264 116.998 162.181 118.402 161.765Z" fill="#8093D0"/>
<path d="M116.168 162.511C115.634 162.511 115.131 162.469 114.624 162.427L113.822 162.372V162.023V159.062C113.822 157.069 113.774 155.006 113.822 152.88C113.924 149.723 114.891 148.601 115.751 148.601C116.889 148.601 118.14 150.574 118.225 154.176C118.257 155.786 118.364 157.257 118.471 158.811C118.541 159.758 118.605 160.72 118.658 161.724V162.023L118.439 162.107C117.7 162.381 116.936 162.517 116.168 162.511ZM114.41 161.675H114.666C115.813 161.851 116.973 161.782 118.102 161.473C118.054 160.581 117.99 159.724 117.931 158.88C117.819 157.312 117.718 155.835 117.68 154.197C117.611 151.194 116.611 149.319 115.773 149.319C115.195 149.319 114.495 150.253 114.41 152.887C114.335 154.978 114.362 157.069 114.41 159.027C114.399 159.919 114.41 160.79 114.41 161.675Z" fill="#373435"/>
<path d="M114.185 162.072C113.797 159.041 113.652 155.965 113.753 152.894C114.052 147.319 110.012 141.445 109.739 151.793C109.64 154.818 109.732 157.848 110.012 160.853C111.377 161.4 112.772 161.807 114.185 162.072Z" fill="#8093D0"/>
<path d="M114.511 162.518L114.142 162.441C112.713 162.18 111.301 161.772 109.921 161.222L109.75 161.145V160.915C109.467 157.887 109.376 154.834 109.477 151.786C109.563 148.448 110.012 146.469 110.883 145.898C111.082 145.768 111.304 145.715 111.526 145.743C111.747 145.771 111.957 145.88 112.133 146.058C112.832 146.937 113.369 148.011 113.703 149.201C114.038 150.39 114.16 151.662 114.062 152.922C113.942 155.613 114.04 158.314 114.356 160.978L114.511 162.518ZM110.268 160.588C111.444 161.043 112.642 161.392 113.854 161.633L113.8 161.055C113.47 158.35 113.357 155.608 113.464 152.873C113.554 151.744 113.451 150.602 113.162 149.53C112.873 148.459 112.405 147.485 111.791 146.678C111.7 146.576 111.588 146.51 111.468 146.488C111.349 146.466 111.228 146.488 111.118 146.553C110.824 146.748 110.129 147.661 110.017 151.807C109.921 154.738 110.005 157.674 110.268 160.588Z" fill="#373435"/>
<path d="M110.017 161.327L109.446 149.48C109.034 140.637 106.309 141.668 106.09 148.95C105.983 152.393 106.196 154.274 105.951 157.724C107.233 158.86 108.569 161.097 110.017 161.278V161.327Z" fill="#8093D0"/>
<path d="M109.99 161.675C108.847 161.311 107.814 160.507 107.024 159.368C106.635 158.9 106.225 158.463 105.795 158.058L105.656 157.933V157.717C105.768 156.048 105.806 154.373 105.769 152.699V148.964C105.881 145.25 106.634 142.838 107.687 142.824C108.756 142.824 109.493 145.312 109.686 149.487L110.257 161.333H109.969L109.99 161.675ZM106.25 157.57C106.634 157.933 107.019 158.379 107.399 158.811C108.052 159.691 108.838 160.386 109.707 160.853L109.173 149.535C108.97 145.152 108.205 143.57 107.741 143.57C107.26 143.57 106.495 145.305 106.389 148.999C106.34 150.393 106.357 151.584 106.389 152.699C106.41 154.32 106.363 155.942 106.25 157.556V157.57Z" fill="#373435"/>
<path d="M63.4037 167.445C63.4762 164.672 63.3671 161.895 63.0777 159.145C61.9342 152.734 60.4914 151.947 58.8027 156.685V167.334C60.33 167.606 61.8774 167.63 63.4091 167.403L63.4037 167.445Z" fill="#8093D0"/>
<path d="M61.6777 167.947C60.7906 167.947 59.9036 167.843 59.0325 167.738L58.4982 167.675V156.525C59.3158 154.233 60.1013 153.166 60.8922 153.278C61.8647 153.41 62.6342 155.243 63.3129 159.055L63.3663 159.661C63.6296 162.243 63.7243 164.849 63.6495 167.452H63.3717L63.4091 167.773C62.8363 167.89 62.2574 167.948 61.6777 167.947ZM59.0806 166.999C60.4224 167.224 61.779 167.254 63.1259 167.09C63.179 164.638 63.0825 162.184 62.8373 159.752L62.7892 159.187C62.009 154.818 61.2502 154.072 60.8708 154.024C60.5769 154.024 59.973 154.295 59.0806 156.776V166.999Z" fill="#373435"/>
<path d="M55.0404 165.689C55.0671 161.605 55.0938 158.901 55.0938 154.818C56.2374 148.811 57.4076 149.417 58.5512 156.63C58.5779 160.504 58.6047 163.027 58.6047 166.895C57.3538 166.831 56.1277 166.42 55.0083 165.689H55.0404Z" fill="#8093D0"/>
<path d="M58.8721 167.313L58.3912 167.243C57.1564 167.165 55.9485 166.745 54.8482 166.01L53.9131 165.313H54.736V163.222C54.736 160.365 54.7734 158.003 54.7734 154.783V154.692C55.3506 151.668 55.917 150.316 56.617 150.316C57.1514 150.316 57.9049 151.048 58.7545 156.518V158.929C58.7545 161.612 58.7919 163.807 58.7919 166.867L58.8721 167.313ZM55.3078 165.487C56.2491 166.065 57.2669 166.401 58.3057 166.477C58.3057 163.647 58.3057 161.522 58.2682 158.964V156.63C57.4293 151.382 56.788 151.096 56.6651 151.096C56.5422 151.096 56.0827 151.18 55.3773 154.86C55.3773 158.058 55.3773 160.435 55.3399 163.264L55.3078 165.487Z" fill="#373435"/>
<path d="M50.7655 157.654C50.9312 154.239 51.4762 150.79 51.6365 147.375C50.5678 140.615 49.4028 139.41 48.1791 143.821C48.1257 148.197 48.099 152.609 48.0455 156.985C48.854 157.657 49.8275 157.906 50.7708 157.682L50.7655 157.654Z" fill="#8093D0"/>
<path d="M50.0872 158.191C49.4346 158.147 48.7984 157.908 48.2276 157.494L47.7787 157.229V156.985C47.8072 154.797 47.8303 152.604 47.8482 150.407C47.866 148.209 47.8891 146.014 47.9176 143.821V143.703C48.452 141.703 49.0184 140.804 49.6597 140.859C50.3009 140.915 51.0437 141.703 51.9254 147.312V147.41C51.8453 149.131 51.6636 150.894 51.4872 152.574C51.3109 154.253 51.1346 155.988 51.0544 157.675V157.995L50.83 158.058C50.5865 158.136 50.3376 158.18 50.0872 158.191ZM48.3558 156.797L48.4627 156.86C49.0812 157.341 49.8047 157.542 50.52 157.431C50.6055 155.793 50.7765 154.128 50.9475 152.518C51.1185 150.908 51.2949 149.131 51.3804 147.452C50.5414 142.135 49.836 141.661 49.6383 141.64C49.5314 141.64 49.1039 141.758 48.4894 143.94C48.4609 146.104 48.4377 148.276 48.4199 150.455C48.4021 152.634 48.3807 154.729 48.3558 156.741V156.797Z" fill="#373435"/>
<path d="M101.644 156.574C101.863 152.943 101.564 149.919 101.644 146.365C101.724 142.058 104.989 143.305 105.128 147.257C105.267 151.208 105.427 153.236 105.593 157.18C104.269 157.472 102.91 157.262 101.676 156.574H101.644Z" fill="#8093D0"/>
<path d="M104.006 157.619C103.17 157.657 102.34 157.418 101.595 156.922H101.36V156.525C101.456 154.585 101.467 152.64 101.392 150.699C101.36 149.305 101.323 147.863 101.36 146.337C101.403 144.093 102.253 143.284 103.033 143.277C104.102 143.277 105.315 144.776 105.395 147.222C105.475 149.236 105.555 150.706 105.63 152.246C105.705 153.786 105.78 155.194 105.86 157.124V157.501L105.032 157.543C104.691 157.596 104.348 157.622 104.006 157.619ZM101.937 156.337C102.915 156.864 103.984 157.038 105.032 156.839H105.288C105.223 155.333 105.152 153.828 105.074 152.323C104.999 150.811 104.925 149.305 104.839 147.285C104.754 145.264 103.861 144.044 103.044 144.044C102.376 144.044 101.975 144.929 101.932 146.386C101.889 147.842 101.932 149.319 101.964 150.706C102.03 152.582 102.021 154.462 101.937 156.337Z" fill="#373435"/>
<path d="M101.473 156.706C101.392 154.044 101.419 150.846 101.339 148.184C101.531 144.525 99.5969 139.124 98.8381 145.131C98.5972 147.356 98.4527 149.596 98.4053 151.842C99.2859 153.607 100.315 155.239 101.473 156.706Z" fill="#B9C5EA"/>
<path d="M101.777 157.459L101.302 157.013C100.361 155.932 99.5394 154.686 98.8594 153.313C98.6375 152.903 98.4094 152.498 98.1754 152.1L98.106 151.988V151.849C98.1434 151.152 98.1701 150.455 98.1915 149.898C98.2316 148.292 98.3494 146.69 98.5441 145.103C98.6403 144.323 98.9396 141.953 99.8961 142.107C100.965 142.274 101.729 145.995 101.611 148.239C101.654 149.535 101.665 151.027 101.681 152.469C101.697 153.912 101.708 155.396 101.75 156.72L101.777 157.459ZM98.6884 151.731C98.8755 152.044 99.0892 152.428 99.3243 152.86C99.878 153.926 100.494 154.935 101.168 155.877C101.168 154.776 101.131 153.598 101.12 152.455C101.12 151.02 101.093 149.529 101.05 148.204C101.184 145.612 100.302 142.887 99.8373 142.818C99.7358 142.776 99.3671 143.194 99.1106 145.194C98.9191 146.753 98.8031 148.327 98.7632 149.905L98.6884 151.724V151.731Z" fill="#373435"/>
<path d="M77.18 107.73C78.5694 99.0886 79.932 90.4473 81.3214 81.7712C81.5405 79.7433 81.9466 77.9314 83.5818 77.7502H85.5697C86.7667 77.7502 87.4507 78.6771 87.5576 80.5377L87.1514 84.3775C87.2049 85.9455 87.9423 86.8305 89.4118 86.9769C91.3997 87.0814 93.4196 87.2277 95.4075 87.3323C98.4054 87.5832 100.42 89.2557 100.217 94.1268L98.3359 106.998C98.3018 107.992 98.0431 108.952 97.5925 109.755C97.1419 110.558 96.5193 111.17 95.803 111.514C94.9052 111.444 93.8952 111.584 92.9975 111.514C91.4425 111.618 90.5447 110.873 91.1165 108.204C91.6883 104.824 92.399 100.594 92.9975 97.214C93.2166 93.193 92.073 92.9839 90.86 92.6982C89.8233 92.517 88.8187 92.6982 87.782 92.517C86.2537 92.8027 85.6819 94.7192 85.2491 96.8586C84.5971 100.447 83.9131 104.043 83.2612 107.667C82.9619 109.625 82.636 110.901 81.5191 111.507H78.1953C76.9413 111.149 76.5851 109.869 77.1266 107.667L77.18 107.73Z" fill="#373435"/>
<path d="M93.5638 112.267H92.9813C92.58 112.355 92.1682 112.314 91.7818 112.148C91.3953 111.981 91.0458 111.694 90.7636 111.312C90.5271 110.826 90.3845 110.271 90.3482 109.697C90.3119 109.123 90.3829 108.546 90.5552 108.016L90.8812 106.078C91.3782 103.138 91.95 99.8554 92.4202 97.1166C92.5859 93.8762 91.9179 93.7159 90.8171 93.4511C89.8231 93.2769 88.8666 93.4511 87.7979 93.2838C86.7291 93.5347 86.2428 94.9215 85.8046 97.0609L84.9176 101.862L83.8168 107.855C83.4534 109.862 83.1595 111.437 81.738 112.211L81.6312 112.267H78.0722C77.7699 112.202 77.4818 112.054 77.2273 111.831C76.9728 111.609 76.758 111.318 76.5974 110.977C76.4106 110.429 76.3141 109.835 76.3141 109.235C76.3141 108.635 76.4106 108.042 76.5974 107.493L76.7737 106.796L78.9112 93.2838L80.7548 81.7088C80.9044 80.315 81.2197 77.3533 83.5282 77.1024H85.5642C86.4405 77.1024 87.9421 77.5484 88.1185 80.5868V80.6634L87.707 84.5102C87.7444 85.2977 87.9956 86.1966 89.4384 86.336L92.4362 86.5102L95.4127 86.6844C96.1734 86.5916 96.9403 86.7293 97.6535 87.0867C98.3666 87.4441 99.0068 88.0116 99.5241 88.7449C100.041 89.4782 100.422 90.3574 100.636 91.314C100.849 92.2705 100.891 93.2786 100.756 94.2595V94.357L98.8755 107.235C98.8228 108.357 98.5202 109.435 98.0048 110.336C97.4893 111.237 96.7835 111.923 95.9738 112.309L95.8669 112.357H94.3974C94.1249 112.253 93.8416 112.267 93.5638 112.267ZM92.9866 110.761H95.7066C96.2992 110.441 96.8084 109.904 97.1733 109.215C97.5381 108.527 97.7432 107.716 97.764 106.88L99.6396 94.0295C99.8053 90.1131 98.5281 88.3291 95.3646 88.0712L92.3935 87.897L89.385 87.7158C87.0337 87.4858 86.6169 85.5485 86.5795 84.4126V84.322L86.9856 80.4962C86.8627 78.7122 86.1627 78.4822 85.5695 78.4822H83.5816C82.5984 78.5937 82.1388 79.4788 81.8823 81.8621L80.0281 93.4859C79.2657 98.2851 78.4997 103.08 77.7302 107.869L77.5165 109.214L77.4524 109.131C77.412 109.49 77.4548 109.856 77.5753 110.183C77.6516 110.333 77.7508 110.46 77.8667 110.557C77.9826 110.654 78.1126 110.719 78.2486 110.748H81.3854C82.1495 110.274 82.4114 109.354 82.6892 107.5L83.7954 101.472L84.6825 96.6567C85.0084 95.0678 85.6016 92.141 87.691 91.7786H87.846C88.8185 91.9458 89.8338 91.7786 90.924 91.9598H90.9988C92.5271 92.3222 93.7722 92.9702 93.5424 97.2491V97.3675C93.0561 100.113 92.4736 103.416 91.998 106.371L91.6614 108.35C91.4476 109.347 91.4476 110.03 91.6614 110.364C91.8751 110.699 92.5004 110.789 92.9599 110.761H92.9866Z" fill="#FEFEFE"/>
<path d="M51.4281 117.73C52.7907 108.517 54.1801 99.3046 55.5481 90.1268C55.5303 89.7098 55.5802 89.2926 55.6945 88.9025C55.8088 88.5124 55.9849 88.1581 56.2114 87.8628C56.4378 87.5675 56.7095 87.3378 57.0086 87.1887C57.3078 87.0397 57.6277 86.9746 57.9475 86.9978H70.4946C71.6901 86.9518 72.8726 87.3317 73.9149 88.0967C74.9572 88.8617 75.8199 89.9828 76.4101 91.3394C77.2501 93.3228 77.6026 95.5949 77.4201 97.8482C77.1516 101.717 75.8371 105.336 73.7115 108.057C71.9709 109.974 69.8386 111.185 67.5769 111.542C65.4394 111.611 63.3019 111.646 61.1644 111.723C59.9353 111.584 58.7116 112.009 58.4124 113.291C58.033 115.033 57.7604 116.775 57.3757 118.483C57.2422 118.867 57.0466 119.209 56.8021 119.486C56.5577 119.763 56.2703 119.967 55.9596 120.085C54.7305 120.12 53.4801 120.12 52.251 120.155C50.9365 120.183 51.209 119.166 51.4281 117.73ZM60.1811 101.939C60.5338 99.5207 60.972 96.782 61.298 94.6495C61.4721 94.0107 61.7997 93.4622 62.2319 93.0856C62.6642 92.7089 63.1781 92.5242 63.6973 92.5589C64.9909 92.4392 66.2899 92.6571 67.5181 93.2C68.0559 93.4831 68.5413 93.912 68.9424 94.4583C69.3434 95.0046 69.6509 95.6557 69.8444 96.3687C70.0379 97.0816 70.113 97.84 70.0648 98.5936C70.0166 99.3473 69.8462 100.079 69.5648 100.74C69.0895 101.904 68.4427 102.934 67.6614 103.771C66.8801 104.609 65.9797 105.236 65.0119 105.618C64.1232 105.921 63.2037 106.041 62.2866 105.974C59.9407 105.653 59.7483 104.838 60.1491 101.918L60.1811 101.939Z" fill="#373435"/>
<path d="M52.1871 120.894C51.9595 120.924 51.7298 120.886 51.515 120.783C51.3003 120.681 51.1062 120.516 50.9473 120.302C50.5412 119.667 50.6802 118.81 50.8244 117.904L50.8725 117.591C51.6242 112.517 52.3812 107.444 53.1436 102.371L54.9765 90.092C54.9536 89.6114 55.0072 89.1298 55.1342 88.6776C55.2611 88.2255 55.4585 87.8125 55.714 87.4648C56.0044 87.0675 56.3558 86.7547 56.7454 86.547C57.1349 86.3392 57.5537 86.2411 57.9744 86.2592H70.4948C71.7946 86.2074 73.0802 86.6227 74.2112 87.4597C75.3421 88.2967 76.2748 89.5232 76.9073 91.0049C77.7935 93.1092 78.1663 95.516 77.976 97.904C77.6975 101.948 76.3263 105.732 74.1071 108.58L74.043 108.657C72.222 110.655 69.9934 111.917 67.6305 112.287C66.5297 112.329 65.4556 112.35 64.3869 112.378L61.1806 112.469H61.1165C60.2562 112.371 59.1714 112.58 58.979 113.514C58.7866 114.448 58.6317 115.214 58.4446 116.072C58.2576 116.929 58.1133 117.814 57.9102 118.699C57.7595 119.196 57.5244 119.642 57.2228 120.004C56.9211 120.366 56.5606 120.635 56.1682 120.789L56.0667 120.845H55.9598L54.1162 120.88L52.2512 120.915L52.1871 120.894ZM51.8291 119.361C51.9613 119.407 52.0987 119.423 52.2352 119.41L54.1162 119.375H55.8369C56.414 119.04 56.7453 118.678 56.8362 118.301C57.0232 117.444 57.1835 116.594 57.3705 115.737C57.5576 114.88 57.7018 113.995 57.9049 113.117C58.2522 111.625 59.508 110.824 61.2234 111.026L64.3976 110.936L67.6038 110.845C69.7314 110.492 71.7355 109.345 73.3751 107.542C75.3889 104.951 76.6361 101.515 76.8966 97.8413C77.0705 95.7204 76.7383 93.5812 75.9454 91.7157C75.3912 90.4858 74.5942 89.4723 73.6373 88.781C72.6805 88.0897 71.5989 87.7459 70.5055 87.7853H57.9477C57.6862 87.7716 57.4254 87.831 57.183 87.9596C56.9406 88.0882 56.7221 88.2831 56.5422 88.531C56.3875 88.7373 56.2692 88.985 56.1953 89.257C56.1215 89.529 56.094 89.8187 56.1147 90.1059V90.315L54.2658 102.698L51.9947 117.918L51.9413 118.246C51.8599 118.622 51.8238 119.012 51.8344 119.403L51.8291 119.361ZM62.7944 106.733H62.228C61.777 106.748 61.3283 106.645 60.9081 106.431C60.4879 106.216 60.1046 105.895 59.7806 105.486C59.305 104.657 59.3477 103.556 59.5935 101.806L59.7859 100.413L59.8233 100.462C60.0103 99.2141 60.2134 97.9318 60.4004 96.7263L60.7905 94.336C61.0121 93.5617 61.4181 92.9003 61.949 92.4488C62.4798 91.9974 63.1076 91.7795 63.7403 91.8272C65.0897 91.7094 66.4435 91.9464 67.7214 92.5241C68.2856 92.788 68.8014 93.2027 69.2357 93.7415C69.67 94.2803 70.0133 94.9313 70.2436 95.6531C70.4978 96.522 70.6146 97.449 70.587 98.3783C70.5595 99.3076 70.3881 100.22 70.0833 101.061L70.0459 101.151C69.536 102.392 68.8435 103.489 68.0082 104.379C67.1729 105.27 66.211 105.938 65.1777 106.343C64.3948 106.586 63.5938 106.717 62.7891 106.733H62.7944ZM60.5875 103.165C60.5038 103.633 60.5433 104.124 60.6997 104.559C60.8867 104.88 61.4104 105.089 62.3456 105.221C63.2018 105.277 64.0595 105.161 64.8892 104.88C65.7773 104.525 66.603 103.945 67.3191 103.174C68.0352 102.403 68.6277 101.455 69.0626 100.385C69.2971 99.7345 69.4297 99.0298 69.4526 98.3118C69.4756 97.5938 69.3884 96.8771 69.1962 96.2036C69.023 95.6708 68.7669 95.1906 68.444 94.7936C68.1212 94.3965 67.7386 94.0912 67.3206 93.8969C66.1624 93.3877 64.9377 93.1863 63.7189 93.3046C63.3147 93.2612 62.911 93.3954 62.572 93.6859C62.2331 93.9763 61.9784 94.4063 61.8486 94.9074L61.5226 96.998C61.2661 98.6427 60.9882 100.434 60.7478 102.078L60.5875 103.165Z" fill="#FEFEFE"/>
<path d="M99.0998 117.73C100.462 108.517 101.852 99.3046 103.22 90.1268C103.202 89.7098 103.252 89.2926 103.366 88.9025C103.48 88.5124 103.657 88.1581 103.883 87.8628C104.11 87.5675 104.381 87.3378 104.68 87.1887C104.98 87.0397 105.299 86.9746 105.619 86.9978H118.166C119.362 86.9518 120.544 87.3317 121.587 88.0967C122.629 88.8617 123.492 89.9828 124.082 91.3394C124.922 93.3228 125.274 95.5949 125.092 97.8482C124.823 101.717 123.509 105.336 121.383 108.057C119.643 109.974 117.51 111.185 115.249 111.542C113.111 111.611 110.974 111.646 108.836 111.723C107.607 111.584 106.383 112.009 106.084 113.291C105.705 115.033 105.432 116.775 105.047 118.483C104.914 118.867 104.718 119.209 104.474 119.486C104.229 119.763 103.942 119.967 103.631 120.085C102.402 120.12 101.152 120.12 99.9227 120.155C98.6082 120.183 98.8593 119.166 99.0998 117.73ZM107.853 101.939C108.206 99.5207 108.644 96.782 108.97 94.6495C109.144 94.0107 109.471 93.4622 109.904 93.0856C110.336 92.7089 110.85 92.5242 111.369 92.5589C112.663 92.4392 113.962 92.6571 115.19 93.2C115.728 93.4831 116.213 93.912 116.614 94.4583C117.015 95.0046 117.323 95.6557 117.516 96.3687C117.71 97.0816 117.785 97.84 117.737 98.5936C117.688 99.3473 117.518 100.079 117.236 100.74C116.761 101.904 116.114 102.934 115.333 103.771C114.552 104.609 113.651 105.236 112.684 105.618C111.795 105.921 110.875 106.041 109.958 105.974C107.612 105.653 107.42 104.838 107.821 101.918L107.853 101.939Z" fill="#373435"/>
<path d="M99.8588 120.894C99.6313 120.923 99.4017 120.885 99.187 120.783C98.9723 120.68 98.7782 120.516 98.6191 120.302C98.213 119.667 98.3519 118.81 98.4962 117.904L98.5443 117.591C99.2924 112.531 100.046 107.477 100.805 102.427L102.648 90.092C102.625 89.6114 102.679 89.1298 102.806 88.6776C102.933 88.2255 103.13 87.8125 103.386 87.4648C103.676 87.0675 104.028 86.7547 104.417 86.547C104.807 86.3392 105.225 86.2411 105.646 86.2592H118.167C119.466 86.2074 120.752 86.6227 121.883 87.4597C123.014 88.2967 123.947 89.5232 124.579 91.0049C125.465 93.1094 125.838 95.5161 125.648 97.904C125.369 101.948 123.998 105.732 121.779 108.58L121.715 108.657C119.894 110.655 117.665 111.917 115.302 112.287C114.201 112.329 113.127 112.35 112.059 112.378L108.852 112.469H108.788C107.923 112.371 106.843 112.58 106.651 113.514C106.458 114.448 106.303 115.214 106.116 116.065C105.929 116.915 105.785 117.814 105.582 118.692C105.431 119.189 105.196 119.635 104.895 119.997C104.593 120.359 104.232 120.628 103.84 120.782L103.738 120.838H103.632L101.788 120.873L99.923 120.908L99.8588 120.894ZM99.5008 119.361C99.6333 119.405 99.7704 119.422 99.9069 119.41L101.788 119.375H103.509C104.086 119.04 104.417 118.678 104.508 118.301C104.695 117.444 104.861 116.587 105.042 115.737C105.224 114.887 105.374 114.002 105.577 113.124C105.924 111.632 107.18 110.831 108.895 111.033L112.069 110.943L115.276 110.852C117.403 110.499 119.407 109.352 121.047 107.549C123.061 104.958 124.308 101.522 124.568 97.8482C124.743 95.7274 124.41 93.5881 123.617 91.7227C123.063 90.4928 122.266 89.4793 121.309 88.788C120.352 88.0967 119.271 87.7528 118.177 87.7923H105.619C105.358 87.7776 105.097 87.8366 104.854 87.9653C104.612 88.094 104.393 88.2893 104.214 88.538C104.059 88.7442 103.941 88.992 103.867 89.264C103.793 89.536 103.766 89.8257 103.787 90.1129V90.322L101.932 102.761L99.6718 117.925L99.6184 118.253C99.537 118.629 99.5009 119.019 99.5115 119.41L99.5008 119.361ZM110.466 106.733H109.9C109.449 106.748 109 106.645 108.58 106.431C108.16 106.216 107.776 105.895 107.452 105.486C106.977 104.657 107.019 103.556 107.265 101.806L107.458 100.413L107.495 100.462C107.682 99.2071 107.885 97.9179 108.072 96.7053L108.462 94.329C108.682 93.5528 109.087 92.8895 109.619 92.4376C110.15 91.9857 110.779 91.7692 111.412 91.8203C112.761 91.7045 114.115 91.9414 115.393 92.5171C115.957 92.7811 116.473 93.1957 116.907 93.7345C117.342 94.2733 117.685 94.9244 117.915 95.6461C118.17 96.515 118.286 97.442 118.259 98.3713C118.231 99.3006 118.06 100.213 117.755 101.054L117.718 101.144C117.208 102.385 116.515 103.482 115.68 104.372C114.845 105.263 113.883 105.931 112.849 106.336C112.069 106.581 111.269 106.714 110.466 106.733ZM108.254 103.172C108.17 103.64 108.21 104.131 108.366 104.566C108.553 104.887 109.077 105.096 110.012 105.228C110.868 105.283 111.726 105.168 112.556 104.887C113.444 104.532 114.269 103.952 114.986 103.181C115.702 102.41 116.294 101.462 116.729 100.392C116.964 99.7415 117.096 99.0367 117.119 98.3187C117.142 97.6008 117.055 96.8841 116.863 96.2106C116.689 95.6777 116.433 95.1976 116.11 94.8006C115.788 94.4035 115.405 94.0982 114.987 93.9039C113.829 93.3941 112.604 93.1927 111.385 93.3116C110.981 93.2694 110.578 93.4041 110.239 93.6944C109.9 93.9847 109.646 94.414 109.515 94.9144L109.189 97.005C108.933 98.6566 108.655 100.455 108.414 102.099L108.254 103.172Z" fill="#FEFEFE"/>
<path d="M18.3023 159.626C17.6633 158.826 17.1226 157.902 16.6992 156.888C16.0397 155.322 15.7201 153.551 15.7747 151.766C14.3854 120.873 15.6091 93.8553 23.1598 71.7783C24.0843 69.0744 24.2286 68.259 26.1577 67.0116C32.0511 64.1937 38.3729 63.2384 44.6043 64.2241C44.7967 63.5273 45.1761 62.8304 45.0104 62.1335C39.3712 61.5448 33.6961 62.1329 28.199 63.8757C24.4583 64.6562 20.8139 65.5134 19.9162 73.2626C12.3708 99.3188 12.9158 123.995 13.7014 148.239C13.6957 149.988 13.8976 151.728 14.2999 153.396C15.7694 159.508 17.1908 159.299 18.3077 159.619L18.3023 159.626Z" fill="#EBEFFF"/>
<path d="M47.2813 155.758C47.2813 149.326 46.8752 142.894 46.8752 136.434C46.6755 132.748 46.0615 129.121 45.053 125.667C43.96 123.155 42.7088 120.766 41.3124 118.524C45.5582 129.047 46.8799 141.162 45.053 152.811C45.8118 153.8 46.4905 154.797 47.2813 155.758Z" fill="#EBEFFF"/>
<path d="M47.6877 157.034L47.3083 156.846C45.8825 156.047 44.6596 154.737 43.7814 153.069L43.4127 152.462H43.7601C43.8402 150.156 43.8082 148.044 43.7601 145.995C43.728 143.835 43.6906 141.605 43.7868 139.152V138.741L44.1021 138.804C44.9738 138.914 45.7974 139.376 46.4583 140.125C47.1192 140.875 47.5844 141.874 47.7893 142.985V143.096L47.7198 149.751L47.6503 156.511L47.6877 157.034ZM44.3158 152.755C45.0502 154.089 46.0125 155.181 47.1266 155.947C47.1266 153.745 47.1694 151.765 47.1908 149.737C47.1908 147.647 47.2335 145.507 47.2602 143.138C47.0943 142.244 46.7301 141.433 46.2131 140.808C45.6961 140.182 45.0493 139.768 44.3532 139.619C44.2784 141.877 44.3105 143.96 44.3532 145.981C44.3532 148.121 44.4067 150.33 44.3158 152.755Z" fill="#373435"/>
<path d="M54.784 164.86C53.6695 164.286 52.7307 163.25 52.1121 161.912C51.9198 150.427 51.7541 138.915 51.5778 127.423L52.919 129.166C53.2193 131.587 53.357 134.037 53.3305 136.49L53.742 137.884C53.7344 146.893 54.0822 155.897 54.784 164.86Z" fill="#EBEFFF"/>
<path d="M55.2274 167.41L54.8534 167.25C53.2991 166.537 52.0126 165.076 51.257 163.166L51.2196 163.069V162.929C51.2196 159.103 51.273 155.145 51.273 151.271V151.173L51.3104 151.089C52.1174 149.173 52.812 147.94 53.5709 148.135C54.164 148.288 54.832 149.187 55.2809 154.65C55.2809 158.713 55.2274 162.853 55.2274 166.902V167.41ZM51.7914 162.881C52.4221 164.428 53.4325 165.655 54.661 166.365C54.661 162.483 54.6877 158.532 54.7144 154.699C54.2976 149.619 53.6991 148.922 53.464 148.859C53.2289 148.797 52.7693 149.187 51.8609 151.361C51.8341 155.194 51.8341 159.103 51.7914 162.888V162.881Z" fill="#373435"/>
<path d="M45.4219 125.835C45.4383 125.244 45.3732 124.654 45.2295 124.093C45.4486 124.162 45.6677 124.197 45.8814 124.274L49.3388 127.939C49.8203 127.673 50.2035 127.173 50.4076 126.546C50.6262 126.541 50.8428 126.602 51.0409 126.722C51.239 126.843 51.4135 127.021 51.5512 127.242C51.6046 130.162 51.4443 133.04 51.4977 135.953C51.8566 136.353 52.0889 136.911 52.1496 137.521C53.5812 137.596 55.0084 137.775 56.4246 138.058C56.5048 138.518 56.617 138.804 56.6972 139.271C55.0991 139.037 53.4859 139.037 51.8878 139.271V140.588C53.1412 140.504 54.3976 140.623 55.6284 140.943L55.762 141.905C54.4314 141.697 53.0855 141.72 51.7596 141.974C51.9519 149.145 51.9519 156.323 51.7596 163.494C51.3214 162.142 50.4824 160.825 50.0175 159.473C50.8473 150.275 50.9565 140.992 50.3435 131.765C49.0756 129.32 47.3912 127.29 45.4219 125.835Z" fill="#373435"/>
<path d="M51.0009 163.933C50.7641 163.269 50.4871 162.63 50.1726 162.023C49.832 161.356 49.5284 160.657 49.2642 159.933L49.1626 159.647L49.1947 159.334C50.0047 150.312 50.1157 141.206 49.526 132.155C48.3193 129.969 46.7667 128.147 44.9731 126.81L44.4922 126.406L44.5991 125.668C44.601 125.4 44.5685 125.134 44.5029 124.88C44.4663 124.698 44.4343 124.514 44.4067 124.33L44.1609 122.622L45.4541 123.04L45.7319 123.117C45.8549 123.117 45.9831 123.18 46.106 123.221L46.2877 123.284L49.4085 126.587C49.4998 126.477 49.571 126.341 49.6169 126.19L49.8253 125.493H50.4184C50.7758 125.49 51.1288 125.596 51.4491 125.803C51.7693 126.01 52.0477 126.312 52.262 126.685L52.4063 126.957V127.291C52.433 128.776 52.4063 130.267 52.3796 131.702C52.3796 132.978 52.3315 134.295 52.3475 135.591C52.5321 135.866 52.6867 136.174 52.8071 136.504C53.6941 136.553 54.5705 136.706 55.4255 136.845L56.5263 137.02L57.1248 137.11L57.2584 137.877C57.2892 138.046 57.3267 138.214 57.3706 138.379C57.4241 138.595 57.4829 138.818 57.5309 139.075L57.7928 140.553L56.6332 140.434H56.4248L56.8149 143.222L55.6874 143.069C54.6779 142.917 53.6594 142.896 52.6468 143.006C52.8132 149.866 52.8132 156.731 52.6468 163.591L51.0009 163.933ZM50.9261 159.306L51.0276 159.557V158.03C51.0027 158.458 50.9688 158.883 50.9261 159.306ZM49.7772 128.922C50.1152 129.392 50.4277 129.893 50.7123 130.42V128.009C50.4445 128.383 50.1279 128.692 49.7772 128.922Z" fill="#373435"/>
<path d="M48.7402 62.4679C51.2056 62.0456 53.5807 60.9816 55.7245 59.339C59.9751 56.235 64.716 54.4468 69.5809 54.1124C67.5681 52.927 65.3038 52.6809 63.1684 53.4155C57.9241 55.0754 53.0076 58.1601 48.7402 62.4679Z" fill="#EBEFFF"/>
<path d="M75.4218 58.6071C87.1234 54.2141 99.6069 54.9485 110.958 60.6977C99.7992 54.3029 87.2768 53.2009 75.5607 57.5826C75.5553 58.2935 75.4218 57.9381 75.4218 58.6071Z" fill="#EBEFFF"/>
<defs>
<linearGradient id="paint0_linear" x1="45.0963" y1="43.6344" x2="99.8642" y2="183.491" gradientUnits="userSpaceOnUse">
<stop stop-color="#8A9FE0"/>
<stop offset="0.588" stop-color="#7182B8"/>
<stop offset="1" stop-color="#576490"/>
</linearGradient>
</defs>
</svg>
