<svg width="149" height="145" viewBox="0 0 149 145" fill="none" xmlns="http://www.w3.org/2000/svg">
<path d="M73.869 0.0409546C36.1348 0.0409546 38.4909 16.0279 38.4909 16.0279L38.5328 32.5909H74.5419V37.5635H24.2305C24.2305 37.5635 0.0843506 34.8881 0.0843506 72.0849C0.0843506 109.283 21.1597 107.964 21.1597 107.964H33.7374V90.7023C33.7374 90.7023 33.0593 70.1124 54.4763 70.1124H90.1909C90.1909 70.1124 110.256 70.4291 110.256 51.1663V19.3163C110.256 19.3163 113.304 0.0409546 73.869 0.0409546ZM54.0136 11.1792C54.8645 11.1785 55.7073 11.3417 56.4936 11.6595C57.2798 11.9772 57.9943 12.4434 58.596 13.0312C59.1977 13.6191 59.6748 14.317 60.0001 15.0852C60.3254 15.8534 60.4924 16.6767 60.4916 17.5081C60.4924 18.3394 60.3254 19.1627 60.0001 19.9309C59.6748 20.6991 59.1977 21.397 58.596 21.9849C57.9943 22.5727 57.2798 23.0389 56.4936 23.3566C55.7073 23.6744 54.8645 23.8376 54.0136 23.8369C53.1627 23.8376 52.32 23.6744 51.5337 23.3566C50.7474 23.0389 50.033 22.5727 49.4313 21.9849C48.8296 21.397 48.3524 20.6991 48.0272 19.9309C47.7019 19.1627 47.5348 18.3394 47.5356 17.5081C47.5348 16.6767 47.7019 15.8534 48.0272 15.0852C48.3524 14.317 48.8296 13.6191 49.4313 13.0312C50.033 12.4434 50.7474 11.9772 51.5337 11.6595C52.32 11.3417 53.1627 11.1785 54.0136 11.1792Z" fill="url(#paint0_linear)"/>
<path d="M74.9407 144.503C112.675 144.503 110.319 128.516 110.319 128.516L110.277 111.954H74.2672V106.981H124.579C124.579 106.981 148.725 109.656 148.725 72.4585C148.725 35.2612 127.649 36.5804 127.649 36.5804H115.072V53.8411C115.072 53.8411 115.75 74.431 94.3328 74.431H58.6182C58.6182 74.431 38.5526 74.1143 38.5526 93.3777V125.228C38.5526 125.228 35.5057 144.503 74.9401 144.503H74.9407ZM94.7961 133.366C93.9452 133.367 93.1024 133.203 92.3161 132.886C91.5299 132.568 90.8154 132.102 90.2137 131.514C89.612 130.926 89.1349 130.228 88.8096 129.46C88.4843 128.692 88.3173 127.868 88.3181 127.037C88.3172 126.206 88.4842 125.382 88.8094 124.614C89.1347 123.846 89.6118 123.148 90.2135 122.56C90.8152 121.972 91.5297 121.506 92.316 121.188C93.1023 120.87 93.9451 120.707 94.7961 120.708C95.647 120.707 96.4897 120.87 97.276 121.188C98.0623 121.506 98.7767 121.972 99.3784 122.56C99.9801 123.147 100.457 123.845 100.783 124.614C101.108 125.382 101.275 126.205 101.274 127.036C101.275 127.868 101.108 128.691 100.783 129.459C100.457 130.227 99.9801 130.925 99.3784 131.513C98.7767 132.101 98.0623 132.567 97.276 132.885C96.4897 133.203 95.647 133.366 94.7961 133.365V133.366Z" fill="url(#paint1_linear)"/>
<defs>
<linearGradient id="paint0_linear" x1="14.3686" y1="13.0345" x2="86.3312" y2="85.9585" gradientUnits="userSpaceOnUse">
<stop stop-color="#387EB8"/>
<stop offset="1" stop-color="#366994"/>
</linearGradient>
<linearGradient id="paint1_linear" x1="59.5822" y1="58.7852" x2="136.945" y2="133.642" gradientUnits="userSpaceOnUse">
<stop stop-color="#FFE052"/>
<stop offset="1" stop-color="#FFC331"/>
</linearGradient>
</defs>
</svg>
