<svg width="170" height="185" viewBox="0 0 170 185" fill="none" xmlns="http://www.w3.org/2000/svg">
<path d="M85 106.803C92.335 106.803 98.2812 100.332 98.2812 92.3497C98.2812 84.3674 92.335 77.8965 85 77.8965C77.665 77.8965 71.7188 84.3674 71.7188 92.3497C71.7188 100.332 77.665 106.803 85 106.803Z" fill="#00D8FF"/>
<path d="M85 125.488C69.0367 125.908 53.1133 123.566 37.825 118.55C30.7627 116.114 24.1758 112.276 18.3972 107.231C16.1921 105.507 14.3558 103.285 13.0143 100.716C11.6727 98.1473 10.8576 95.2933 10.625 92.3496C10.625 82.7932 20.2725 73.4276 36.4331 67.2995C52.1301 61.8695 68.5308 59.2378 85 59.5064C101.249 59.2593 117.43 61.8434 132.929 67.1607C139.731 69.5204 146.094 73.1728 151.725 77.9486C153.892 79.5918 155.701 81.7337 157.023 84.2224C158.345 86.711 159.148 89.4857 159.375 92.3496C159.375 102.282 148.591 112.347 131.219 118.602C116.226 123.455 100.639 125.777 85 125.488ZM85 66.4207C69.2437 66.1915 53.5544 68.6934 38.5209 73.8323C23.6459 79.4806 16.9788 87.2043 16.9788 92.3323C16.9788 97.6973 24.1453 106.132 39.8809 111.989C54.5066 116.763 69.7351 118.986 85 118.573C99.9622 118.865 114.877 116.661 129.227 112.041C145.562 106.149 153 97.7031 153 92.3496C152.732 90.5125 152.117 88.7558 151.193 87.1906C150.27 85.6253 149.058 84.2855 147.634 83.2557C142.597 79.0189 136.912 75.782 130.842 73.6936C116.015 68.6278 100.539 66.1726 85 66.4207Z" fill="#00D8FF"/>
<path d="M54.8249 164.436C52.3466 164.498 49.8976 163.844 47.7274 162.54C40.1199 157.765 37.4849 143.994 40.6777 125.696C44.198 108.185 50.2976 91.4091 58.7402 76.0177C66.6597 60.5766 76.7983 46.6137 88.7718 34.6586C94.0479 29.4249 100.134 25.2499 106.749 22.3272C109.142 21.107 111.752 20.4745 114.394 20.4745C117.036 20.4745 119.646 21.107 122.039 22.3272C129.949 27.2875 132.568 42.4806 128.876 61.9808C125.247 78.5415 119.306 94.3988 111.26 109C103.619 124.258 93.7994 138.1 82.1683 150.006C76.7006 155.445 70.3551 159.736 63.4524 162.661C60.6889 163.777 57.772 164.377 54.8249 164.436ZM64.2439 79.4517C56.1907 94.19 50.3447 110.229 46.9252 126.968C43.9874 143.82 46.8083 153.955 50.9096 156.533C55.1596 159.21 65.4764 156.672 78.0033 144.763C89.1066 133.356 98.4789 120.107 105.772 105.508C113.48 91.5491 119.179 76.3885 122.671 60.5528C126.145 42.1974 123.144 30.9586 118.883 28.2877C117.286 27.6218 115.58 27.3238 113.872 27.4123C112.163 27.5009 110.491 27.9742 108.959 28.8022C103.071 31.4462 97.6582 35.1999 92.9686 39.8906C81.5291 51.3421 71.8445 64.7092 64.2811 79.4864L64.2439 79.4517Z" fill="#00D8FF"/>
<path d="M115.159 164.511C107.961 164.511 98.818 159.771 89.298 150.862C77.1148 138.798 66.8047 124.669 58.7671 109.023C50.4303 93.8432 44.379 77.31 40.8427 60.0498C39.309 52.456 39.0248 44.6265 40.0033 36.9248C40.2295 34.0677 41.029 31.2995 42.3452 28.8152C43.6615 26.3309 45.4626 24.1912 47.6214 22.5468C55.5211 17.5692 68.9246 22.6856 82.6042 35.9015C93.9761 47.5923 103.633 61.1118 111.239 75.9887C119.57 90.8138 125.685 106.985 129.354 123.898C130.954 131.77 131.201 139.897 130.082 147.867C129.816 150.806 128.969 153.648 127.599 156.198C126.229 158.747 124.368 160.944 122.145 162.638C120.01 163.926 117.599 164.572 115.159 164.511ZM64.2655 105.542C71.9762 120.495 81.8248 134.017 93.4417 145.601C105.39 156.787 114.867 159.192 118.942 156.585C123.192 153.897 126.326 142.924 123.096 125.17C119.557 109.022 113.692 93.5863 105.719 79.4343C98.4612 65.1958 89.2435 52.2501 78.3861 41.0468C65.5086 28.6056 55.0642 25.8248 50.8089 28.5073C49.4826 29.6802 48.3942 31.1396 47.6124 32.7934C46.8306 34.4472 46.3724 36.2595 46.2667 38.1157C45.4221 44.9843 45.6972 51.9613 47.0796 58.7259C50.4812 75.2321 56.2847 91.0408 64.2708 105.554L64.2655 105.542Z" fill="#00D8FF"/>
</svg>
