<svg width="32" height="32" viewBox="0 0 32 32" fill="white" xmlns="http://www.w3.org/2000/svg">
<path d="M13 4C11.09 4 9.543 5.387 9.156 7.188C6.824 7.604 5 9.55 5 12C5 12.246 5.027 12.465 5.063 12.688C4.418 13.636 4 14.753 4 16C4 17.797 4.895 19.309 6.156 20.406C6.066 20.762 6 21.117 6 21.5C6 23.973 8.027 26 10.5 26H10.563C11.145 27.129 12.153 28 13.5 28C13.9666 27.9989 14.4283 27.9043 14.8577 27.7217C15.2871 27.5392 15.6755 27.2723 16 26.937C16.3245 27.2723 16.7129 27.5392 17.1423 27.7217C17.5717 27.9043 18.0334 27.9989 18.5 28C19.848 28 20.855 27.129 21.438 26H21.5C23.848 26 25.773 24.172 25.969 21.875H26C26 21.812 25.973 21.75 25.969 21.687C25.973 21.625 26 21.562 26 21.5C26 21.129 25.867 20.812 25.781 20.469C27.078 19.367 28 17.829 28 16C28 14.754 27.582 13.637 26.937 12.687C26.973 12.465 27 12.247 27 12C27 9.55 25.176 7.605 22.844 7.187C22.457 5.388 20.91 4 19 4C17.8 4 16.734 4.559 16 5.406C15.266 4.56 14.2 4 13 4ZM13 6C14.117 6 15 6.883 15 8V10C15 11.668 13.668 13 12 13V15C13.133 15 14.16 14.61 15 13.969V24.5C15 25.34 14.34 26 13.5 26C13.1501 26.0049 12.81 25.8848 12.5407 25.6614C12.2714 25.4379 12.0907 25.1258 12.031 24.781L11.844 23.813L10.875 23.969C10.519 24.0252 10.1549 24.0034 9.80815 23.905C9.46138 23.8066 9.14013 23.634 8.86667 23.3992C8.5932 23.1644 8.37406 22.8729 8.22441 22.5449C8.07477 22.217 7.99819 21.8605 8 21.5C8 21.191 8.05 20.902 8.156 20.625C8.164 20.602 8.18 20.585 8.187 20.562C8.497 19.793 9.168 19.23 10 19.062L9.594 17.094C8.57339 17.2956 7.65561 17.8482 7 18.656C6.34981 17.9247 5.99355 16.9785 6 16C5.99829 15.1007 6.3074 14.2285 6.875 13.531L7.188 13.156L7.094 12.656C7.03733 12.4417 7.00579 12.2216 7 12C7 10.332 8.332 9 10 9H11V8C11 6.883 11.883 6 13 6ZM19 6C20.117 6 21 6.883 21 8V9H22C23.668 9 25 10.332 25 12C25 12.215 24.96 12.422 24.906 12.656L24.813 13.156L25.125 13.531C25.6926 14.2285 26.0017 15.1007 26 16C26 17.2 25.488 18.27 24.656 19C23.973 18.395 23.102 18 22.125 18C21.18 18 20.328 18.336 19.656 18.906L20.938 20.438C21.2679 20.1536 21.6895 19.9981 22.125 20C23.09 20 23.859 20.723 23.969 21.656C23.887 22.973 22.836 24 21.5 24C21.41 24 21.3 23.996 21.125 23.969L20.156 23.812L19.969 24.782C19.9091 25.1266 19.7282 25.4385 19.459 25.6618C19.1898 25.885 18.8497 26.0049 18.5 26C17.66 26 17 25.34 17 24.5V13.969C17.8586 14.6348 18.9135 14.9974 20 15V13C18.332 13 17 11.668 17 10V8C17 6.883 17.883 6 19 6Z" fill="white"/>
</svg>
