<svg width="176" height="168" viewBox="0 0 176 168" fill="none" xmlns="http://www.w3.org/2000/svg">
<path d="M120.303 38.507C119.46 38.507 118.888 38.605 118.294 38.738V38.829H118.397C118.793 39.557 119.467 40.089 119.966 40.74C120.362 41.489 120.699 42.238 121.095 42.98L121.198 42.875C121.887 42.413 122.225 41.671 122.225 40.544C121.931 40.215 121.887 39.886 121.638 39.564C121.345 39.095 120.714 38.864 120.318 38.493L120.303 38.507ZM42.3133 130.865H35.5153C35.3242 120.553 34.6635 110.253 33.5353 99.995H33.4767L23.1367 130.865H17.9667L7.7 99.995H7.62667C6.82362 110.269 6.34673 120.564 6.19667 130.865H0C0.403333 117.103 1.408 104.195 3.00667 92.155H11.44L21.23 120.603H21.2887L31.1667 92.155H39.1967C40.9713 106.26 42.0127 119.175 42.3353 130.865H42.3133ZM71.7713 102.305C68.9993 116.62 65.3473 127.036 60.83 133.525C57.2953 138.537 53.4233 141.036 49.2213 141.036C48.0993 141.036 46.728 140.714 45.0707 140.07V136.612C45.8773 136.731 46.8307 136.794 47.9013 136.794C49.8667 136.794 51.4433 136.269 52.646 135.24C54.0907 133.98 54.8093 132.566 54.8093 131.005C54.8093 129.92 54.2447 127.715 53.1227 124.397L45.6867 102.305H52.36L57.6913 118.825C58.894 122.577 59.4 125.195 59.1947 126.686C62.128 119.238 64.1667 111.097 65.318 102.305H71.7713ZM162.155 130.865H142.868V92.155H149.358V126.105H162.155V130.865ZM137.808 131.81L130.357 128.31C131.017 127.778 131.655 127.204 132.227 126.56C135.403 123.018 136.979 117.754 136.979 110.789C136.979 97.979 131.714 91.567 121.176 91.567C116.013 91.567 111.98 93.191 109.076 96.446C105.923 100.002 104.339 105.238 104.339 112.161C104.339 118.965 105.732 123.963 108.548 127.141C111.115 130.011 114.979 131.446 120.157 131.446C122.093 131.446 123.867 131.215 125.473 130.76L135.19 136.164L137.83 131.81H137.808ZM113.667 123.116C112.017 120.596 111.195 116.536 111.195 110.964C111.195 101.213 114.305 96.334 120.509 96.334C123.757 96.334 126.155 97.503 127.673 99.834C129.316 102.368 130.137 106.386 130.137 111.895C130.137 121.723 127.028 126.651 120.824 126.651C117.561 126.651 115.177 125.482 113.652 123.151L113.667 123.116ZM101.508 120.141C101.508 123.431 100.247 126.133 97.724 128.233C95.2013 130.333 91.8353 131.383 87.5747 131.383C83.5927 131.383 79.772 130.179 76.0393 127.778L77.7773 124.446C80.9893 125.986 83.886 126.742 86.504 126.742C88.9387 126.742 90.8527 126.231 92.246 125.202C92.9424 124.701 93.5047 124.05 93.8871 123.301C94.2694 122.553 94.4609 121.729 94.446 120.897C94.446 118.587 92.7593 116.627 89.694 114.982C86.8487 113.491 81.1653 110.383 81.1653 110.383C78.0707 108.234 76.5307 105.931 76.5307 102.144C76.5307 98.994 77.682 96.474 79.9773 94.549C82.2873 92.603 85.2573 91.644 88.924 91.644C92.6787 91.644 96.1107 92.596 99.1907 94.514L97.6287 97.846C95.1676 96.8141 92.5138 96.2665 89.826 96.236C87.7507 96.236 86.1447 96.712 85.03 97.678C84.4644 98.1253 84.0083 98.6856 83.6941 99.3193C83.3799 99.9531 83.2151 100.645 83.2113 101.346C83.2113 103.642 84.9273 105.616 88.0953 107.296C90.9773 108.801 96.8 111.986 96.8 111.986C99.9753 114.121 101.552 116.396 101.552 120.162L101.508 120.141ZM170.309 79.177C166.386 79.079 163.343 79.457 160.798 80.493C160.065 80.773 158.891 80.773 158.789 81.662C159.192 82.033 159.251 82.642 159.595 83.16C160.182 84.098 161.194 85.351 162.133 86.009C163.159 86.779 164.186 87.521 165.264 88.179C167.171 89.299 169.334 89.964 171.204 91.091C172.267 91.749 173.353 92.582 174.431 93.282C174.966 93.632 175.311 94.262 176 94.486V94.346C175.663 93.926 175.56 93.317 175.23 92.848C174.739 92.379 174.247 91.959 173.763 91.497C172.324 89.6859 170.605 88.0929 168.667 86.772C167.097 85.75 163.665 84.322 163.02 82.607L162.925 82.509C163.995 82.418 165.271 82.047 166.298 81.767C167.963 81.347 169.488 81.438 171.211 81.025C171.989 80.836 172.773 80.605 173.558 80.367V79.947C172.678 79.107 172.018 77.966 171.109 77.182C168.571 75.0643 165.864 73.1381 163.013 71.421C161.473 70.483 159.522 69.881 157.901 69.083C157.315 68.803 156.332 68.663 155.995 68.194C155.115 67.172 154.601 65.814 153.978 64.596C152.538 61.9296 151.2 59.2142 149.967 56.455C149.087 54.621 148.551 52.794 147.473 51.114C142.413 43.155 136.935 38.332 128.509 33.614C126.698 32.634 124.527 32.214 122.232 31.696C121.007 31.64 119.783 31.556 118.565 31.507C117.759 31.178 116.981 30.289 116.292 29.862C113.505 28.182 106.289 24.542 104.236 29.358C102.916 32.396 106.194 35.392 107.331 36.932C108.174 38.003 109.237 39.228 109.824 40.432C110.169 41.244 110.264 42.077 110.609 42.924C111.386 44.982 112.127 47.278 113.153 49.203C113.689 50.183 114.275 51.212 114.965 52.094C115.361 52.605 116.035 52.843 116.189 53.683C115.5 54.635 115.456 56.021 115.06 57.183C113.3 62.482 113.989 69.034 116.483 72.933C117.267 74.095 119.137 76.671 121.638 75.684C123.838 74.844 123.354 72.184 123.985 69.839C124.131 69.279 124.036 68.908 124.337 68.53V68.635C125.026 69.951 125.715 71.204 126.346 72.52C127.857 74.816 130.497 77.196 132.704 78.785C133.877 79.625 134.809 81.081 136.275 81.599V81.459H136.165C135.85 81.053 135.432 80.857 135.036 80.528C134.106 79.6592 133.248 78.7231 132.469 77.728C130.403 75.0332 128.571 72.1817 126.991 69.202C126.185 67.732 125.51 66.15 124.865 64.701C124.571 64.141 124.571 63.301 124.08 63.021C123.347 64.043 122.269 64.932 121.733 66.192C120.802 68.208 120.707 70.686 120.355 73.262C120.157 73.311 120.252 73.262 120.157 73.36C118.587 72.996 118.052 71.442 117.465 70.14C115.999 66.815 115.757 61.474 117.025 57.645C117.37 56.665 118.837 53.571 118.25 52.633C117.942 51.744 116.974 51.233 116.439 50.512C115.75 49.5736 115.16 48.5724 114.679 47.523C113.505 44.905 112.919 42.007 111.643 39.389C111.056 38.178 110.029 36.911 109.193 35.798C108.262 34.538 107.235 33.649 106.495 32.158C106.253 31.647 105.908 30.8 106.297 30.24C106.399 29.862 106.605 29.715 106.986 29.61C107.631 29.106 109.443 29.764 110.081 30.044C111.892 30.744 113.417 31.402 114.935 32.382C115.625 32.844 116.365 33.733 117.245 33.964H118.272C119.841 34.293 121.609 34.062 123.075 34.475C125.679 35.273 128.025 36.435 130.13 37.695C136.615 41.6494 141.89 47.1699 145.42 53.697C146.007 54.775 146.263 55.762 146.799 56.882C147.825 59.192 149.094 61.523 150.135 63.756C151.162 65.961 152.152 68.208 153.626 70.035C154.359 71.015 157.307 71.526 158.627 72.037C159.603 72.457 161.121 72.842 162.001 73.353C163.687 74.333 165.33 75.453 166.914 76.531C167.721 77.063 170.163 78.232 170.309 79.177Z" fill="#BC8888"/>
</svg>
