<svg width="54" height="54" viewBox="0 0 54 54" fill="none" xmlns="http://www.w3.org/2000/svg">
<path d="M27 0.84375C12.5499 0.84375 0.84375 12.5516 0.84375 27C0.84375 41.4484 12.5516 53.1562 27 53.1562C41.4501 53.1562 53.1562 41.4484 53.1562 27C53.1562 12.5516 41.4484 0.84375 27 0.84375ZM39.8469 18.7633L35.5539 38.9931C35.2367 40.4274 34.3828 40.7751 33.1914 40.1001L26.6524 35.2806L23.4984 38.3181C23.1508 38.6657 22.8555 38.961 22.1805 38.961L22.6446 32.3055L34.7625 21.357C35.2907 20.8929 34.6461 20.6297 33.9491 21.0938L18.9726 30.5218L12.5179 28.5069C11.1156 28.0648 11.0835 27.1046 12.8132 26.4296L38.0312 16.7046C39.2023 16.2827 40.2249 16.9897 39.8452 18.7616L39.8469 18.7633Z" fill="#9F9D9D" fill-opacity="0.61"/>
</svg>
